<svg width="1440" height="236" viewBox="0 0 1440 236" fill="none" xmlns="http://www.w3.org/2000/svg">
<g clip-path="url(#clip0_1_21950)">
<path d="M244.208 153.847H253.27L248.478 146.138L239.684 160.077H235.681L246.378 143.333C246.843 142.657 247.619 142.248 248.478 142.248C249.31 142.248 250.085 142.643 250.536 143.305L261.276 160.077H257.273L255.384 156.962H246.209L244.208 153.847ZM285.785 156.962V142.417H282.389V158.386C282.389 158.823 282.558 159.246 282.882 159.57C283.206 159.894 283.643 160.077 284.122 160.077H299.612L301.613 156.962H285.785ZM229.592 154.355C232.89 154.355 235.568 151.691 235.568 148.393C235.568 145.095 232.89 142.417 229.592 142.417H214.733V160.077H218.128V145.532H229.367C230.945 145.532 232.214 146.815 232.214 148.393C232.214 149.972 230.945 151.254 229.367 151.254L219.791 151.24L229.931 160.077H234.864L228.042 154.355H229.592ZM193.831 160.077C188.956 160.077 185 156.131 185 151.254C185 146.378 188.956 142.417 193.831 142.417H204.096C208.973 142.417 212.926 146.378 212.926 151.254C212.926 156.131 208.973 160.077 204.096 160.077H193.831ZM203.868 156.962C207.026 156.962 209.584 154.411 209.584 151.254C209.584 148.097 207.026 145.532 203.868 145.532H194.058C190.901 145.532 188.342 148.097 188.342 151.254C188.342 154.411 190.901 156.962 194.058 156.962H203.868ZM268.365 160.077C263.489 160.077 259.528 156.131 259.528 151.254C259.528 146.378 263.489 142.417 268.365 142.417H280.556L278.569 145.532H268.591C265.434 145.532 262.868 148.097 262.868 151.254C262.868 154.411 265.434 156.962 268.591 156.962H280.838L278.837 160.077H268.365ZM309.9 156.962C307.293 156.962 305.08 155.215 304.404 152.805H318.921L320.922 149.69H304.404C305.08 147.294 307.293 145.532 309.9 145.532H319.865L321.88 142.417H309.675C304.798 142.417 300.838 146.378 300.838 151.254C300.838 156.131 304.798 160.077 309.675 160.077H320.147L322.148 156.962H309.9Z" fill="#EA1B22"/>
<path d="M507.682 146.849C508.757 147.719 507.619 149.095 506.67 148.399C505.499 147.655 502.842 147.307 502.51 148.952C502.083 151.546 508.963 150.059 508.852 154.266C508.742 158.284 502.921 158.379 500.739 156.576C500.217 156.149 500.232 155.453 500.517 155.026C500.928 154.615 501.387 154.472 501.925 154.915C503.222 155.801 506.559 156.465 506.796 154.219C506.591 151.878 500.011 153.286 500.501 148.794C500.865 145.726 505.499 145.172 507.682 146.849ZM497.306 147.465V153.191C497.306 159.106 487.769 159.106 487.769 153.191V147.465C487.769 146.042 489.841 145.979 489.841 147.465V153.191C489.841 156.307 495.234 156.497 495.234 153.191V147.465C495.234 146.058 497.306 145.947 497.306 147.465ZM431.998 146.026C434.766 146.169 437.66 148.082 437.66 151.831C437.66 155.579 434.766 157.525 431.998 157.525C429.072 157.651 426.035 155.706 426.035 151.831C426.035 147.94 429.072 146.026 431.998 146.026ZM445.933 146.422C449.95 146.422 450.773 151.799 447.42 153.144L449.523 155.706C450.346 156.924 448.701 158.094 447.752 156.892L445.363 153.476H442.88V156.338C442.88 157.714 440.777 157.762 440.777 156.37V147.386C440.777 146.833 441.204 146.422 441.726 146.422H445.933ZM413.16 146.279C413.619 146.279 413.888 146.548 414.157 146.849L417.636 151.546L421.243 146.675C421.764 146.026 423.046 146.279 423.046 147.371V156.275C423.046 156.971 422.603 157.367 422.097 157.367C421.527 157.367 421.084 156.971 421.084 156.275V150.423L418.459 153.745C417.889 154.44 417.178 154.44 416.656 153.745L414.299 150.423V156.275C414.299 156.971 413.73 157.367 413.16 157.367C412.654 157.367 412.211 156.971 412.211 156.275V147.371C412.211 146.548 412.907 146.279 413.16 146.279ZM457.4 146.279C459.456 146.279 461.307 147.655 461.307 150.297C461.307 152.796 459.456 154.187 457.4 154.187H454.759V156.275C454.759 156.971 454.316 157.367 453.746 157.367C453.224 157.367 452.671 156.971 452.671 156.275V147.371C452.671 146.849 453.082 146.279 453.746 146.279H457.4ZM472.505 146.422C473.059 146.422 473.486 146.833 473.486 147.402V156.386C473.486 156.939 473.059 157.367 472.505 157.367C471.936 157.367 471.43 156.939 471.43 156.386V152.922H466.274V156.386C466.274 156.939 465.862 157.367 465.309 157.367C464.597 157.367 464.186 156.939 464.186 156.386V147.402C464.186 146.833 464.597 146.422 465.309 146.422C465.862 146.422 466.274 146.833 466.274 147.402V150.85H471.43V147.402C471.43 146.833 471.936 146.422 472.505 146.422ZM483.514 146.422C484.969 146.422 484.937 148.478 483.514 148.478H478.959V150.85H482.944C484.352 150.85 484.352 152.922 482.944 152.922H478.959V155.295H483.783C485.222 155.295 485.333 157.367 483.783 157.367H477.836C477.282 157.367 476.855 156.939 476.855 156.386V147.402C476.855 146.833 477.282 146.422 477.836 146.422H483.514ZM431.824 148.082C430.053 148.082 428.123 149.332 428.123 151.831C428.123 154.314 430.053 155.579 431.824 155.579C433.643 155.579 435.589 154.314 435.589 151.831C435.589 149.332 433.643 148.082 431.824 148.082ZM457.4 148.272H454.759V152.21H457.4C458.46 152.21 459.298 151.277 459.298 150.297C459.298 149.19 458.46 148.272 457.4 148.272ZM445.933 148.335H442.88V151.657H445.933C447.989 151.657 448.115 148.335 445.933 148.335Z" fill="#3DB5E6"/>
<path d="M399.662 154.723C398.12 160.918 392.478 165.325 385.833 165.325C379.159 165.325 373.565 160.657 372.086 154.436C373.865 154.436 375.527 154.445 376.299 154.445C376.663 154.445 376.733 154.451 376.755 154.449C377.335 154.421 378.063 154.229 378.548 153.051L380.394 148.223L384.493 158.093C384.862 158.88 385.477 158.824 385.844 158.824H385.879C386.595 158.824 386.906 158.573 387.178 158.054L391.809 148.297L393.388 152.694L393.485 152.907C393.819 153.64 394.059 154.363 394.885 154.458C395.056 154.477 397.034 154.443 399.702 154.443C399.702 154.443 399.702 154.46 399.662 154.723Z" fill="#3DB5E6"/>
<path d="M400.117 151.075C400.117 151.149 400.117 151.334 400.115 151.334H400.112H395.855L393.371 144.396C393.15 143.88 392.818 143.106 391.849 143.106C391.256 143.106 390.72 143.596 390.417 144.404L385.914 154.833L381.58 144.467C381.156 143.546 380.862 143.113 380.014 143.113C379.438 143.113 379.015 143.326 378.555 144.416L375.982 151.437L371.708 151.433C371.705 151.326 371.704 151.219 371.704 151.112C371.704 143.308 378.031 137 385.836 137C393.64 137 400.117 143.27 400.117 151.075Z" fill="#D8292F"/>
<path d="M694.387 146.849C695.463 147.719 694.324 149.095 693.375 148.399C692.205 147.655 689.548 147.307 689.215 148.952C688.788 151.546 695.669 150.059 695.558 154.266C695.447 158.284 689.627 158.379 687.444 156.576C686.922 156.149 686.938 155.453 687.223 155.026C687.634 154.615 688.093 154.472 688.63 154.915C689.927 155.801 693.264 156.465 693.502 154.219C693.296 151.878 686.717 153.286 687.207 148.794C687.571 145.726 692.205 145.172 694.387 146.849ZM684.011 147.465V153.191C684.011 159.106 674.474 159.106 674.474 153.191V147.465C674.474 146.042 676.546 145.979 676.546 147.465V153.191C676.546 156.307 681.939 156.497 681.939 153.191V147.465C681.939 146.058 684.011 145.947 684.011 147.465ZM618.704 146.026C621.472 146.169 624.366 148.082 624.366 151.831C624.366 155.579 621.472 157.525 618.704 157.525C615.778 157.651 612.741 155.706 612.741 151.831C612.741 147.94 615.778 146.026 618.704 146.026ZM632.638 146.422C636.656 146.422 637.478 151.799 634.125 153.144L636.229 155.706C637.051 156.924 635.406 158.094 634.457 156.892L632.069 153.476H629.586V156.338C629.586 157.714 627.482 157.762 627.482 156.37V147.386C627.482 146.833 627.909 146.422 628.431 146.422H632.638ZM599.866 146.279C600.325 146.279 600.593 146.548 600.862 146.849L604.342 151.546L607.948 146.675C608.47 146.026 609.751 146.279 609.751 147.371V156.275C609.751 156.971 609.308 157.367 608.802 157.367C608.233 157.367 607.79 156.971 607.79 156.275V150.423L605.164 153.745C604.595 154.44 603.883 154.44 603.361 153.745L601.005 150.423V156.275C601.005 156.971 600.435 157.367 599.866 157.367C599.36 157.367 598.917 156.971 598.917 156.275V147.371C598.917 146.548 599.613 146.279 599.866 146.279ZM644.106 146.279C646.162 146.279 648.012 147.655 648.012 150.297C648.012 152.796 646.162 154.187 644.106 154.187H641.464V156.275C641.464 156.971 641.021 157.367 640.452 157.367C639.93 157.367 639.376 156.971 639.376 156.275V147.371C639.376 146.849 639.788 146.279 640.452 146.279H644.106ZM659.211 146.422C659.764 146.422 660.191 146.833 660.191 147.402V156.386C660.191 156.939 659.764 157.367 659.211 157.367C658.641 157.367 658.135 156.939 658.135 156.386V152.922H652.979V156.386C652.979 156.939 652.568 157.367 652.014 157.367C651.302 157.367 650.891 156.939 650.891 156.386V147.402C650.891 146.833 651.302 146.422 652.014 146.422C652.568 146.422 652.979 146.833 652.979 147.402V150.85H658.135V147.402C658.135 146.833 658.641 146.422 659.211 146.422ZM670.219 146.422C671.674 146.422 671.643 148.478 670.219 148.478H665.664V150.85H669.65C671.057 150.85 671.057 152.922 669.65 152.922H665.664V155.295H670.488C671.927 155.295 672.038 157.367 670.488 157.367H664.541C663.988 157.367 663.56 156.939 663.56 156.386V147.402C663.56 146.833 663.988 146.422 664.541 146.422H670.219ZM618.53 148.082C616.758 148.082 614.829 149.332 614.829 151.831C614.829 154.314 616.758 155.579 618.53 155.579C620.349 155.579 622.294 154.314 622.294 151.831C622.294 149.332 620.349 148.082 618.53 148.082ZM644.106 148.272H641.464V152.21H644.106C645.165 152.21 646.003 151.277 646.003 150.297C646.003 149.19 645.165 148.272 644.106 148.272ZM632.638 148.335H629.586V151.657H632.638C634.694 151.657 634.821 148.335 632.638 148.335Z" fill="#3DB5E6"/>
<path d="M586.368 154.723C584.826 160.918 579.184 165.325 572.539 165.325C565.864 165.325 560.271 160.657 558.792 154.436C560.57 154.436 562.232 154.445 563.004 154.445C563.368 154.445 563.439 154.451 563.46 154.449C564.041 154.421 564.769 154.229 565.253 153.051L567.099 148.223L571.199 158.093C571.567 158.88 572.182 158.824 572.549 158.824H572.584C573.3 158.824 573.612 158.573 573.884 158.054L578.514 148.297L580.094 152.694L580.19 152.907C580.524 153.64 580.764 154.363 581.591 154.458C581.761 154.477 583.74 154.443 586.407 154.443C586.407 154.443 586.407 154.46 586.368 154.723Z" fill="#3DB5E6"/>
<path d="M586.822 151.075C586.822 151.149 586.822 151.334 586.821 151.334H586.818H582.56L580.077 144.396C579.856 143.88 579.523 143.106 578.554 143.106C577.962 143.106 577.426 143.596 577.122 144.404L572.619 154.833L568.285 144.467C567.861 143.546 567.568 143.113 566.719 143.113C566.143 143.113 565.72 143.326 565.26 144.416L562.688 151.437L558.414 151.433C558.411 151.326 558.409 151.219 558.409 151.112C558.409 143.308 564.737 137 572.541 137C580.346 137 586.822 143.27 586.822 151.075Z" fill="#D8292F"/>
<path d="M875.327 149.886V152.745H877.337V155.582C877.342 155.8 877.333 156.032 877.303 156.231L877.286 156.328C877.282 156.35 877.279 156.372 877.274 156.395L877.257 156.464C877.254 156.476 877.251 156.488 877.248 156.5L877.224 156.574C877.043 157.096 876.499 157.758 875.277 157.758C873.975 157.758 873.452 156.998 873.309 156.464L873.292 156.395L873.279 156.328C873.243 156.109 873.228 155.836 873.228 155.582V146.622C873.228 146.34 873.245 146.034 873.296 145.786L873.33 145.634C873.333 145.624 873.336 145.613 873.338 145.602L873.357 145.536C873.361 145.524 873.365 145.513 873.368 145.501L873.393 145.43C873.579 144.935 874.071 144.276 875.266 144.276C876.189 144.276 876.686 144.652 876.951 145.04L876.998 145.113C877.013 145.138 877.027 145.162 877.04 145.186L877.078 145.258L877.11 145.328L877.139 145.397L877.163 145.464L877.184 145.527L877.201 145.587L877.215 145.643L877.226 145.695C877.231 145.721 877.236 145.748 877.24 145.776L877.252 145.864C877.254 145.879 877.255 145.894 877.257 145.91L877.269 146.047L877.277 146.179L877.284 146.359L877.286 146.451V147.539H882.223L882.224 146.862L882.228 146.62L882.227 146.432L882.222 146.213L882.218 146.096L882.21 145.912L882.197 145.724L882.186 145.599C881.852 142.289 879.364 141.015 876.337 140.793L876.134 140.78L875.93 140.77C875.827 140.766 875.725 140.762 875.621 140.76L875.414 140.757C875.379 140.757 875.344 140.757 875.31 140.757L875.101 140.759C875.067 140.759 875.032 140.76 874.998 140.76L874.792 140.766L874.587 140.775L874.384 140.787L874.182 140.801C874.115 140.807 874.049 140.813 873.982 140.82L873.785 140.841C873.752 140.845 873.719 140.849 873.686 140.853L873.491 140.879C873.039 140.944 872.604 141.037 872.191 141.161L872.016 141.216C870.103 141.844 868.713 143.178 868.427 145.599L868.398 145.867L868.377 146.075L868.359 146.293L868.343 146.51C868.334 146.652 868.328 146.786 868.328 146.896L868.329 155.245L868.33 155.349L868.335 155.506L868.339 155.617L868.346 155.735L868.355 155.863L868.366 156.004L868.388 156.246L868.406 156.432C868.684 159.508 871.015 160.877 873.868 161.2L874.068 161.22C874.402 161.252 874.743 161.27 875.088 161.275L875.296 161.277L875.505 161.275C875.852 161.27 876.194 161.252 876.53 161.22L876.73 161.2C879.593 160.877 881.909 159.508 882.191 156.432L882.214 156.161L882.23 155.932L882.246 155.674L882.255 155.453L882.263 155.139V149.886H875.327ZM841.281 141.285H836.322V155.789C836.33 156.042 836.322 156.326 836.278 156.534L836.264 156.597L836.246 156.664C836.239 156.687 836.232 156.711 836.224 156.735L836.198 156.809C836.011 157.307 835.534 157.958 834.394 157.958C833.325 157.958 832.837 157.371 832.633 156.884L832.603 156.809C832.598 156.796 832.594 156.784 832.589 156.771L832.566 156.699L832.547 156.63C832.544 156.619 832.541 156.608 832.538 156.597L832.525 156.534C832.475 156.326 832.469 156.042 832.475 155.789V141.285H827.518V155.339L827.517 155.452L827.519 155.65L827.526 155.94L827.539 156.294L827.549 156.471L827.555 156.566L827.562 156.635C827.805 159.236 829.33 160.589 831.484 161.155L831.668 161.201C832.069 161.297 832.49 161.367 832.928 161.413L833.131 161.433L833.336 161.45L833.544 161.463C833.648 161.469 833.753 161.474 833.859 161.478L834.072 161.483L834.286 161.486C834.322 161.487 834.358 161.487 834.394 161.487L834.61 161.485C834.646 161.485 834.682 161.484 834.717 161.483L834.93 161.478C835.036 161.474 835.142 161.469 835.246 161.463L835.454 161.45L835.66 161.433L835.863 161.413C838.764 161.105 840.939 159.785 841.239 156.635L841.243 156.604L841.251 156.521L841.263 156.357L841.273 156.158L841.279 156.014L841.285 155.793L841.287 155.65L841.287 155.515L841.283 155.393C841.283 155.374 841.282 155.356 841.281 155.339V141.285ZM795.72 141.285L793.246 156.611L790.774 141.285H782.776L782.352 160.891H787.252L787.384 142.741L790.756 160.891H795.728L799.102 142.741L799.235 160.891H804.148L803.709 141.285H795.72ZM766.105 141.285L762.473 160.891H767.77L770.507 142.741L773.178 160.891H778.437L774.82 141.285H766.105ZM858.61 157.07L853.993 141.285H846.717V160.687H851.53L851.251 144.396L856.209 160.687H863.187V141.285H858.343L858.61 157.07ZM814.09 146.387C814.003 146 814.028 145.589 814.073 145.374C814.086 145.317 814.101 145.259 814.118 145.202L814.147 145.116C814.343 144.572 814.8 144.061 815.85 144.061C816.982 144.061 817.646 144.767 817.646 145.827V147.026H822.48V145.659C822.48 142.575 820.462 141.389 818.305 140.973L818.127 140.941L817.949 140.912L817.771 140.886L817.593 140.863L817.416 140.843L817.238 140.826C817.18 140.82 817.121 140.815 817.062 140.811L816.887 140.799L816.712 140.789L816.54 140.782L816.369 140.776L816.2 140.773L815.95 140.771L815.84 140.771L815.622 140.774C815.585 140.775 815.549 140.776 815.513 140.777L815.297 140.785C815.225 140.788 815.154 140.792 815.083 140.796L814.872 140.811C811.923 141.036 809.621 142.248 809.161 145.088C809.025 145.953 808.991 146.721 809.208 147.701C809.549 149.311 810.89 150.457 812.43 151.418L812.668 151.564C812.708 151.588 812.748 151.612 812.789 151.636L813.03 151.779L813.274 151.919L813.518 152.057L813.884 152.261L814.847 152.788L815.081 152.918L815.311 153.047L815.536 153.176L815.756 153.306C816.806 153.93 817.647 154.563 817.949 155.321C818.117 155.77 818.08 156.338 817.999 156.699L817.985 156.758C817.965 156.845 817.94 156.932 817.908 157.017L817.875 157.102C817.652 157.622 817.165 158.066 816.095 158.066C814.875 158.066 814.141 157.365 814.141 156.307L814.14 154.426H808.937V155.922C808.937 159.432 811.164 160.957 813.953 161.41L814.161 161.441C814.3 161.461 814.441 161.478 814.582 161.493L814.795 161.513C815.044 161.535 815.296 161.549 815.55 161.557L815.769 161.562C815.805 161.562 815.842 161.563 815.878 161.563L815.988 161.563C816.061 161.563 816.133 161.563 816.206 161.562L816.422 161.557C816.458 161.556 816.494 161.555 816.53 161.553L816.743 161.544C816.814 161.54 816.885 161.536 816.955 161.531L817.165 161.515C817.304 161.503 817.441 161.489 817.578 161.472L817.781 161.446L817.981 161.416C818.048 161.405 818.114 161.394 818.179 161.383L818.375 161.345C820.736 160.872 822.493 159.589 822.846 157.123C822.894 156.755 822.924 156.415 822.94 156.105L822.949 155.902C822.95 155.869 822.951 155.836 822.952 155.804L822.955 155.614V155.434L822.952 155.262L822.946 155.099L822.939 154.945C822.937 154.92 822.936 154.895 822.934 154.871L822.923 154.731L822.911 154.6L822.898 154.478L822.876 154.312L822.854 154.168L822.825 154.009L822.811 153.944C822.471 152.237 820.976 151.031 819.315 150.038L819.077 149.898L818.837 149.76L818.596 149.625L818.235 149.427L817.755 149.169L816.937 148.734L816.6 148.552C816.563 148.532 816.527 148.512 816.491 148.492L816.275 148.372L816.066 148.252C815.035 147.654 814.257 147.068 814.09 146.387ZM750.326 146.339C750.237 145.969 750.251 145.579 750.297 145.352L750.316 145.267L750.337 145.183C750.5 144.595 750.947 143.988 752.101 143.988C753.247 143.988 753.923 144.701 753.923 145.769V146.982H758.813V145.605C758.813 142.662 756.982 141.426 754.937 140.942L754.758 140.902C754.609 140.87 754.459 140.842 754.309 140.818L754.129 140.79L753.948 140.765L753.768 140.743L753.588 140.724C753.529 140.718 753.469 140.713 753.409 140.708L753.231 140.694L753.055 140.683L752.879 140.674L752.705 140.668L752.533 140.663L752.279 140.66H752.196C752.122 140.66 752.049 140.66 751.977 140.661L751.759 140.666C751.615 140.67 751.472 140.677 751.33 140.685L751.119 140.699C751.084 140.702 751.049 140.705 751.014 140.708L750.806 140.727C750.737 140.734 750.668 140.742 750.6 140.75L750.397 140.776C750.228 140.799 750.063 140.826 749.9 140.857L749.705 140.896L749.514 140.938L749.325 140.984C749.263 141 749.201 141.017 749.14 141.034L748.958 141.087C747.06 141.671 745.692 142.894 745.347 145.018C745.204 145.896 745.18 146.67 745.386 147.66C745.748 149.372 747.227 150.565 748.881 151.566L749.125 151.712C749.165 151.736 749.206 151.759 749.247 151.783L749.493 151.925L749.863 152.133L750.356 152.405L751.082 152.803L751.435 153L751.778 153.196L752.001 153.326C752.037 153.348 752.074 153.37 752.11 153.392L752.323 153.523C753.231 154.091 753.942 154.677 754.217 155.364C754.397 155.811 754.354 156.378 754.27 156.752L754.255 156.812C754.234 156.898 754.208 156.984 754.176 157.069L754.142 157.153C753.914 157.682 753.424 158.137 752.34 158.137C751.115 158.137 750.383 157.423 750.383 156.351L750.376 154.465H745.115V155.964C745.115 160.172 748.288 161.555 751.801 161.659L752.021 161.664L752.242 161.666L752.46 161.664C752.569 161.663 752.677 161.66 752.785 161.656L752.999 161.646C753.105 161.641 753.211 161.634 753.316 161.626L753.524 161.609L753.731 161.588C753.8 161.58 753.868 161.572 753.935 161.563L754.137 161.535C754.204 161.526 754.271 161.515 754.337 161.504L754.534 161.469C756.979 161.011 758.801 159.714 759.168 157.177C759.219 156.815 759.25 156.48 759.268 156.172L759.278 155.972L759.284 155.779C759.285 155.717 759.286 155.655 759.286 155.595L759.286 155.42L759.282 155.253L759.276 155.095L759.268 154.945L759.258 154.804L759.247 154.672L759.228 154.491L759.207 154.329L759.179 154.146L759.148 153.968C758.808 152.281 757.358 151.08 755.727 150.093L755.487 149.95C755.447 149.927 755.406 149.903 755.366 149.88L755.123 149.741L754.88 149.605L754.636 149.471L754.392 149.339L753.317 148.769L752.974 148.585L752.751 148.463L752.533 148.342L752.321 148.221C752.287 148.201 752.252 148.181 752.218 148.161L752.017 148.041C751.129 147.5 750.477 146.959 750.326 146.339Z" fill="#1428A0"/>
<path d="M934.662 158.411C933.633 158.414 932.683 157.862 932.174 156.968C931.673 156.079 931.703 154.986 932.252 154.127L937.375 146.082C937.909 145.202 938.875 144.677 939.904 144.708C940.932 144.733 941.867 145.309 942.351 146.217C942.829 147.12 942.769 148.206 942.197 149.054L937.078 157.098C936.55 157.92 935.639 158.416 934.662 158.411Z" fill="#F62B54"/>
<path d="M943.449 158.411C942.416 158.411 941.465 157.859 940.966 156.971C940.466 156.085 940.496 154.995 941.044 154.137L946.157 146.111C946.683 145.218 947.652 144.681 948.688 144.708C949.73 144.731 950.674 145.314 951.152 146.225C951.626 147.137 951.557 148.23 950.967 149.075L945.856 157.101C945.33 157.92 944.422 158.414 943.449 158.411Z" fill="#FFCC00"/>
<path d="M952.038 158.48C953.494 158.48 954.675 157.324 954.675 155.898C954.675 154.472 953.494 153.316 952.038 153.316C950.581 153.316 949.4 154.472 949.4 155.898C949.4 157.324 950.581 158.48 952.038 158.48Z" fill="#00CA72"/>
<path d="M1066.61 153.465C1067.41 153.465 1067.88 154.031 1067.88 154.959V158.139H1068.97V154.887C1068.97 153.309 1068.22 152.394 1066.82 152.394C1066.28 152.394 1065.41 152.544 1064.89 153.55C1064.65 152.945 1064.09 152.524 1063.44 152.453C1063.24 152.417 1063.04 152.405 1062.83 152.418C1062.39 152.453 1061.6 152.73 1061.3 153.358V152.514H1060.22V158.139H1061.3V155.104C1061.3 153.923 1062.07 153.465 1062.85 153.465C1063.57 153.465 1064.05 154.02 1064.05 154.947V158.139H1065.12V155.104C1065.12 154.164 1065.69 153.454 1066.61 153.465ZM1056.24 157.2C1056.74 157.21 1057.21 157.013 1057.56 156.655C1057.91 156.297 1058.09 155.809 1058.07 155.309C1058.07 154.176 1057.24 153.465 1056.24 153.465C1055.24 153.465 1054.41 154.176 1054.41 155.309C1054.39 155.808 1054.57 156.294 1054.92 156.651C1055.26 157.01 1055.74 157.208 1056.23 157.2H1056.24ZM1056.24 158.254C1054.66 158.254 1053.34 157.086 1053.34 155.302C1053.34 153.519 1054.66 152.387 1056.24 152.387C1057.82 152.387 1059.15 153.519 1059.15 155.302C1059.15 157.086 1057.82 158.26 1056.23 158.26L1056.24 158.254ZM1047.76 155.302L1047.75 155.309C1047.75 153.526 1049.11 152.394 1050.7 152.387C1051.51 152.372 1052.29 152.7 1052.84 153.29L1052.02 153.989C1051.67 153.644 1051.2 153.453 1050.7 153.46C1049.7 153.46 1048.84 154.17 1048.84 155.302C1048.84 156.068 1049.29 156.757 1049.99 157.05C1050.69 157.343 1051.49 157.18 1052.02 156.639L1052.86 157.338C1052.3 157.935 1051.52 158.268 1050.7 158.254C1049.12 158.254 1047.76 157.086 1047.76 155.302ZM1044.3 157.059C1044.3 156.861 1044.37 156.669 1044.51 156.527C1044.65 156.385 1044.84 156.304 1045.04 156.302C1045.24 156.304 1045.43 156.385 1045.57 156.527C1045.7 156.669 1045.78 156.861 1045.78 157.059C1045.76 157.455 1045.43 157.766 1045.04 157.77C1044.64 157.766 1044.32 157.455 1044.3 157.059Z" fill="#333333"/>
<path d="M1047.26 145.363H1043.41L1040.7 152.327L1038.02 145.363H1034.16L1038.85 156.368L1035.93 163.644H1039.76L1047.26 145.363ZM1023.82 151.484C1023.82 153.242 1025.36 154.399 1026.87 154.399C1028.35 154.399 1029.81 153.322 1029.81 151.483C1029.81 149.643 1028.35 148.566 1026.87 148.566C1025.36 148.566 1023.82 149.724 1023.82 151.483V151.484ZM1029.81 157.629V156.236C1029.03 157.419 1027.2 157.867 1026.27 157.867C1023.17 157.867 1020.07 155.425 1020.07 151.483C1020.07 147.542 1023.17 145.1 1026.27 145.1C1027.05 145.1 1028.87 145.361 1029.81 146.728V145.367H1033.4V157.631L1029.81 157.63V157.629ZM1019.05 157.629H1015.46V156.105C1014.86 157.234 1013.4 157.892 1011.89 157.892C1008.77 157.892 1006.01 155.396 1006.01 151.533C1006.01 147.596 1008.77 145.098 1011.89 145.098C1013.4 145.098 1014.86 145.727 1015.46 146.857V138.682H1019.05V157.629ZM1015.38 151.456C1015.38 149.617 1014.05 148.539 1012.57 148.539C1011.03 148.539 1009.76 149.695 1009.76 151.456C1009.76 153.272 1011.03 154.423 1012.57 154.423C1014.08 154.425 1015.38 153.216 1015.38 151.456ZM997.125 151.139C997.125 149.274 998.089 148.644 999.364 148.644C1000.59 148.644 1001.47 149.458 1001.47 151.086V157.627H1005.09V150.299C1005.09 146.806 1003.37 145.098 1000.64 145.098C999.207 145.098 997.775 145.912 997.124 147.147V145.363H993.508V157.627H997.125V151.139ZM986.16 157.837C982.724 157.837 979.858 155.316 979.858 151.455C979.858 147.591 982.721 145.095 986.16 145.095C989.6 145.095 992.488 147.591 992.488 151.455C992.488 155.318 989.596 157.838 986.16 157.838V157.837ZM986.16 154.267C987.669 154.267 988.92 153.162 988.92 151.456C988.92 149.801 987.67 148.671 986.16 148.671C985.426 148.659 984.719 148.95 984.205 149.475C983.688 150.003 983.407 150.717 983.426 151.456C983.428 153.164 984.677 154.267 986.16 154.267ZM973.371 148.645C974.438 148.645 975.376 149.486 975.376 151.087V157.629H978.968V150.663C978.968 146.96 977.167 145.096 974.282 145.096C973.424 145.096 971.809 145.356 970.637 147.275C969.96 145.857 968.659 145.121 966.736 145.121C965.372 145.114 964.13 145.905 963.56 147.144V145.364H959.939V157.628H963.557V151.139C963.557 149.274 964.573 148.644 965.665 148.644C966.707 148.644 967.643 149.458 967.67 151.007V157.628H971.288V151.139C971.288 149.356 972.226 148.646 973.371 148.646V148.645Z" fill="#333333"/>
<path d="M1143.27 152.163L1143.29 152.165L1145.18 152.363C1145.31 152.377 1145.44 152.442 1145.52 152.544L1145.54 152.561L1145.52 152.57C1145.61 152.682 1145.65 152.825 1145.63 152.966C1145.21 156.259 1143.65 159.301 1141.22 161.557C1138.69 163.899 1135.38 165.2 1131.93 165.2C1130.26 165.203 1128.6 164.895 1127.04 164.292L1126.96 164.259C1126.83 164.212 1126.73 164.115 1126.67 163.991L1126.67 163.971C1126.61 163.847 1126.61 163.708 1126.66 163.583L1127.41 161.757C1127.51 161.499 1127.79 161.369 1128.05 161.461L1128.07 161.467C1131.9 162.944 1136.23 162.112 1139.23 159.324C1141.15 157.566 1142.38 155.191 1142.72 152.615C1142.75 152.349 1142.99 152.155 1143.25 152.162L1143.27 152.163ZM1188.04 144.416C1189.65 144.416 1190.92 144.909 1191.73 145.856L1191.75 145.888V145.086C1191.76 144.863 1191.94 144.682 1192.16 144.66L1192.18 144.659H1194.33C1194.55 144.674 1194.73 144.849 1194.75 145.069L1194.75 145.086V157.059C1194.82 158.747 1194.3 160.407 1193.28 161.755C1192.12 163.169 1190.36 163.885 1188.04 163.885C1184.81 163.885 1182.27 161.846 1181.85 158.932C1181.83 158.722 1181.96 158.526 1182.16 158.46L1182.18 158.455L1184.28 157.96C1184.29 157.957 1184.31 157.955 1184.32 157.953C1184.55 157.92 1184.76 158.08 1184.8 158.311C1184.99 159.945 1186.39 161.164 1188.04 161.125C1190.53 161.125 1191.7 159.858 1191.73 157.212L1191.73 157.131V156.082C1190.79 157.13 1189.44 157.709 1188.04 157.662C1184.45 157.662 1181.86 154.88 1181.86 151.052C1181.82 149.331 1182.43 147.657 1183.56 146.356C1184.7 145.097 1186.34 144.39 1188.04 144.416ZM1123.13 158.977L1123.15 158.977L1123.18 158.977C1124.04 158.987 1124.73 159.683 1124.74 160.54L1124.74 160.567C1124.74 160.576 1124.74 160.585 1124.74 160.593C1124.73 161.471 1124.01 162.171 1123.13 162.156C1122.25 162.141 1121.55 161.417 1121.57 160.539C1121.58 159.68 1122.27 158.991 1123.13 158.977ZM1225.37 144.249L1225.48 144.25C1229.34 144.303 1231.72 146.985 1231.72 151.278C1231.72 151.505 1231.71 151.732 1231.69 151.958C1231.67 152.165 1231.5 152.325 1231.29 152.335L1231.27 152.336H1222.11C1222.17 154.259 1223.76 155.781 1225.69 155.753C1227.18 155.847 1228.54 154.899 1228.96 153.466C1229.04 153.26 1229.26 153.15 1229.47 153.209L1229.49 153.214L1231.32 153.858C1231.42 153.89 1231.5 153.962 1231.55 154.056L1231.56 154.074C1231.61 154.173 1231.62 154.288 1231.58 154.393C1230.73 156.908 1228.34 158.571 1225.69 158.491C1223.95 158.508 1222.27 157.829 1221.04 156.604C1219.69 155.187 1218.97 153.286 1219.04 151.332C1219.04 146.941 1222.2 144.302 1225.28 144.25L1225.37 144.249ZM1173.55 144.249H1173.55C1177.47 144.249 1179.91 146.942 1179.91 151.278C1179.91 151.505 1179.9 151.732 1179.87 151.958C1179.86 152.166 1179.69 152.328 1179.48 152.335L1179.46 152.336H1170.3C1170.36 154.265 1171.96 155.789 1173.89 155.753C1175.38 155.849 1176.74 154.9 1177.16 153.466C1177.24 153.259 1177.46 153.147 1177.67 153.208L1177.69 153.214L1179.52 153.858C1179.63 153.892 1179.71 153.971 1179.76 154.074C1179.8 154.176 1179.8 154.291 1179.76 154.393C1178.91 156.906 1176.52 158.569 1173.87 158.491C1172.13 158.511 1170.45 157.831 1169.21 156.604C1167.87 155.186 1167.15 153.286 1167.22 151.332C1167.22 146.897 1170.44 144.249 1173.55 144.249ZM1159.68 144.244C1161.44 144.244 1162.86 144.672 1163.92 145.514C1164.63 146.082 1165.16 146.848 1165.43 147.716L1165.44 147.719C1165.47 147.869 1165.38 148.02 1165.24 148.063L1165.22 148.067L1163.04 148.788C1162.94 148.826 1162.83 148.826 1162.74 148.788C1162.65 148.749 1162.59 148.677 1162.57 148.59L1162.55 148.547C1162.36 147.836 1161.71 146.694 1159.68 146.694C1158.24 146.694 1157.37 147.522 1157.37 148.324L1157.38 148.356C1157.39 148.877 1157.67 149.531 1158.91 149.78L1158.95 149.787L1161.36 150.237C1164.01 150.772 1165.54 152.216 1165.57 154.229L1165.57 154.29L1165.57 154.254L1165.56 154.315C1165.53 156.332 1163.57 158.455 1159.98 158.455C1155.77 158.455 1154.12 156.073 1153.81 154.668C1153.79 154.521 1153.88 154.382 1154.02 154.339L1154.04 154.335L1156.29 153.633C1156.33 153.626 1156.37 153.626 1156.41 153.633C1156.47 153.632 1156.53 153.644 1156.58 153.668L1156.6 153.678C1156.68 153.717 1156.74 153.791 1156.76 153.88C1157.05 155.231 1158.27 156.037 1160.02 156.037C1161.66 156.037 1162.4 155.181 1162.4 154.407C1162.4 153.641 1161.75 153.073 1160.64 152.839L1160.6 152.831L1158.07 152.34C1155.72 151.895 1154.25 150.431 1154.25 148.526C1154.25 146.208 1156.74 144.244 1159.68 144.244ZM1250.49 140.494H1252.46C1252.69 140.508 1252.87 140.696 1252.88 140.927L1252.88 140.944V144.641H1255.25C1255.48 144.657 1255.66 144.844 1255.67 145.073L1255.67 145.091V147.054L1255.67 147.071C1255.66 147.291 1255.49 147.47 1255.27 147.481L1255.25 147.482H1252.88V154.051C1252.88 155.141 1253.31 155.591 1254.43 155.591C1254.65 155.587 1254.88 155.57 1255.1 155.54L1255.18 155.528C1255.31 155.507 1255.43 155.542 1255.52 155.623C1255.61 155.702 1255.66 155.81 1255.67 155.925L1255.67 155.947V157.798C1255.67 157.986 1255.55 158.153 1255.37 158.207C1254.85 158.352 1254.31 158.425 1253.77 158.424L1253.7 158.423C1251.35 158.423 1249.89 156.927 1249.86 154.508L1249.86 154.434V147.509H1247.81C1247.58 147.496 1247.4 147.32 1247.39 147.099L1247.38 147.081V145.109C1247.38 144.876 1247.56 144.683 1247.79 144.66L1247.81 144.659L1248.36 144.659L1248.42 144.658C1249.06 144.639 1250.05 144.378 1250.07 142.943L1250.07 142.898V140.944C1250.07 140.711 1250.24 140.518 1250.47 140.495L1250.49 140.494ZM1212.25 144.247L1212.3 144.249H1212.29C1214.61 144.249 1216.95 145.864 1217 149.392L1217 149.499V157.838C1216.99 158.062 1216.82 158.243 1216.59 158.264L1216.58 158.266H1214.42C1214.2 158.253 1214.02 158.077 1214 157.856L1214 157.838V149.769L1214 149.707C1213.98 148.679 1213.63 147.027 1211.52 147.027C1209.95 147.027 1208.84 148.245 1208.81 150.017L1208.81 150.071V157.838C1208.8 158.062 1208.63 158.243 1208.41 158.264L1208.39 158.266H1206.21C1205.98 158.253 1205.8 158.077 1205.78 157.856L1205.78 157.838V149.769L1205.78 149.707C1205.77 148.679 1205.42 147.027 1203.3 147.027C1201.68 147.027 1200.57 148.236 1200.55 150.043L1200.55 150.098V157.838C1200.54 158.062 1200.37 158.243 1200.15 158.264L1200.13 158.266H1197.97C1197.75 158.251 1197.57 158.076 1197.55 157.856L1197.55 157.838V145.059C1197.56 144.837 1197.73 144.657 1197.95 144.633L1197.97 144.632H1200.05C1200.27 144.645 1200.45 144.82 1200.47 145.041L1200.47 145.059V145.829C1201.4 144.806 1202.73 144.23 1204.12 144.249C1205.72 144.202 1207.22 145.05 1208 146.451C1208.94 145.024 1210.55 144.19 1212.25 144.247ZM1244.54 145.838C1245.37 146.927 1245.8 148.266 1245.75 149.63L1245.75 149.688V157.838C1245.74 158.06 1245.57 158.24 1245.35 158.264L1245.33 158.266H1243.15C1242.92 158.253 1242.74 158.077 1242.72 157.856L1242.72 157.838V150.125C1242.72 148.108 1241.77 147.081 1239.97 147.081C1239.18 147.055 1238.42 147.41 1237.92 148.036C1237.45 148.723 1237.2 149.543 1237.22 150.377L1237.22 150.427V157.838C1237.21 158.062 1237.04 158.243 1236.82 158.264L1236.8 158.266H1234.62C1234.4 158.253 1234.22 158.077 1234.2 157.856L1234.2 157.838V145.05C1234.21 144.827 1234.38 144.646 1234.6 144.624L1234.62 144.623H1236.75C1236.97 144.638 1237.15 144.813 1237.17 145.032L1237.17 145.05V145.951C1238.08 144.844 1239.45 144.217 1240.89 144.249C1242.28 144.189 1243.63 144.775 1244.54 145.838ZM1119.04 152.71H1134.55C1134.83 152.712 1135.06 152.94 1135.07 153.223L1135.07 153.241V155.182C1135.07 155.466 1134.85 155.7 1134.56 155.712L1134.55 155.713H1119.04C1118.76 155.71 1118.53 155.482 1118.52 155.2V155.181V153.241V153.223C1118.53 152.946 1118.75 152.722 1119.02 152.71L1119.04 152.71ZM1188.41 147.108C1186.29 147.108 1184.94 148.621 1184.94 151.052C1184.94 153.484 1186.27 154.992 1188.41 154.992C1190.46 154.992 1191.83 153.407 1191.83 151.052C1191.83 148.693 1190.46 147.108 1188.41 147.108ZM1170.4 149.739L1170.39 149.787H1176.8C1176.64 148.076 1175.44 147.008 1173.63 146.987L1173.58 146.987C1171.98 146.961 1170.63 148.125 1170.4 149.691L1170.4 149.739ZM1222.23 149.739L1222.22 149.787H1228.63C1228.47 148.076 1227.27 147.008 1225.46 146.987L1225.41 146.987C1223.81 146.961 1222.46 148.125 1222.23 149.691L1222.23 149.739ZM1136.49 137.9C1136.62 137.949 1136.73 138.049 1136.79 138.179C1136.84 138.311 1136.84 138.458 1136.79 138.589L1136.11 140.39C1136.02 140.657 1135.73 140.798 1135.46 140.705C1131.92 139.471 1128 140.172 1125.1 142.556C1123.3 144.064 1122.02 146.104 1121.45 148.382C1121.39 148.613 1121.18 148.773 1120.94 148.774H1120.83L1118.97 148.328C1118.83 148.296 1118.71 148.208 1118.64 148.085H1118.63C1118.56 147.963 1118.54 147.814 1118.58 147.675C1119.31 144.758 1120.96 142.153 1123.28 140.237C1126.97 137.2 1131.98 136.313 1136.49 137.9ZM1129.62 145.681H1145.12C1145.4 145.683 1145.63 145.9 1145.64 146.176L1145.65 146.194V148.135C1145.65 148.42 1145.42 148.654 1145.14 148.666L1145.12 148.666H1129.62C1129.34 148.661 1129.11 148.434 1129.1 148.153L1129.1 148.135V146.212C1129.1 145.929 1129.32 145.696 1129.6 145.681L1129.62 145.681ZM1140.38 139.76L1140.41 139.759L1140.44 139.76C1141.3 139.77 1141.99 140.465 1142 141.322L1142 141.349C1142 141.358 1142 141.367 1142 141.376C1141.98 142.254 1141.26 142.953 1140.38 142.938C1139.5 142.923 1138.8 142.2 1138.82 141.322C1138.83 140.462 1139.53 139.773 1140.38 139.76Z" fill="#4FB58B"/>
<path d="M426.499 79.7891V77H439.64V79.7891H434.741V93H431.397V79.7891H426.499ZM440.495 93V81H443.722V83.0937H443.847C444.065 82.349 444.433 81.7865 444.948 81.4063C445.464 81.0208 446.058 80.8281 446.729 80.8281C446.896 80.8281 447.076 80.8385 447.269 80.8594C447.461 80.8802 447.631 80.9089 447.776 80.9453V83.8984C447.62 83.8516 447.404 83.8099 447.128 83.7734C446.852 83.737 446.599 83.7188 446.37 83.7188C445.881 83.7188 445.443 83.8255 445.058 84.0391C444.677 84.2474 444.375 84.5391 444.151 84.9141C443.933 85.2891 443.823 85.7214 443.823 86.2109V93H440.495ZM457.192 87.8906V81H460.521V93H457.325V90.8203H457.2C456.929 91.5234 456.479 92.0885 455.849 92.5156C455.224 92.9427 454.461 93.1563 453.56 93.1563C452.757 93.1563 452.052 92.974 451.442 92.6094C450.833 92.2448 450.356 91.7266 450.013 91.0547C449.674 90.3828 449.502 89.5781 449.497 88.6406V81H452.825V88.0469C452.83 88.7552 453.021 89.3151 453.396 89.7266C453.771 90.138 454.273 90.3437 454.903 90.3437C455.304 90.3437 455.679 90.2526 456.028 90.0703C456.377 89.8828 456.659 89.6068 456.872 89.2422C457.091 88.8776 457.198 88.4271 457.192 87.8906ZM473.167 84.4219L470.12 84.6094C470.068 84.349 469.956 84.1146 469.784 83.9062C469.612 83.6927 469.386 83.5234 469.104 83.3984C468.828 83.2682 468.498 83.2031 468.112 83.2031C467.597 83.2031 467.162 83.3125 466.808 83.5312C466.453 83.7448 466.276 84.0312 466.276 84.3906C466.276 84.6771 466.391 84.9193 466.62 85.1172C466.849 85.3151 467.243 85.474 467.8 85.5937L469.972 86.0312C471.138 86.2708 472.008 86.6562 472.581 87.1875C473.154 87.7187 473.44 88.4167 473.44 89.2812C473.44 90.0677 473.209 90.7578 472.745 91.3516C472.287 91.9453 471.657 92.4089 470.854 92.7422C470.058 93.0703 469.138 93.2344 468.097 93.2344C466.508 93.2344 465.243 92.9036 464.3 92.2422C463.362 91.5755 462.813 90.6693 462.651 89.5234L465.925 89.3516C466.024 89.8359 466.263 90.2057 466.644 90.4609C467.024 90.7109 467.511 90.8359 468.104 90.8359C468.688 90.8359 469.157 90.724 469.511 90.5C469.87 90.2708 470.052 89.9766 470.058 89.6172C470.052 89.3151 469.925 89.0677 469.675 88.875C469.425 88.6771 469.039 88.526 468.519 88.4219L466.44 88.0078C465.269 87.7734 464.396 87.3672 463.823 86.7891C463.256 86.2109 462.972 85.474 462.972 84.5781C462.972 83.8073 463.18 83.1432 463.597 82.5859C464.019 82.0286 464.61 81.599 465.37 81.2969C466.136 80.9948 467.032 80.8438 468.058 80.8438C469.573 80.8438 470.766 81.1641 471.636 81.8047C472.511 82.4453 473.021 83.3177 473.167 84.4219ZM481.919 81V83.5H474.692V81H481.919ZM476.333 78.125H479.661V89.3125C479.661 89.6198 479.708 89.8594 479.802 90.0312C479.896 90.1979 480.026 90.3151 480.192 90.3828C480.364 90.4505 480.562 90.4844 480.786 90.4844C480.942 90.4844 481.099 90.4714 481.255 90.4453C481.411 90.4141 481.531 90.3906 481.614 90.375L482.138 92.8516C481.971 92.9036 481.737 92.9635 481.435 93.0313C481.132 93.1042 480.765 93.1484 480.333 93.1641C479.531 93.1953 478.828 93.0885 478.224 92.8437C477.625 92.599 477.159 92.2187 476.825 91.7031C476.492 91.1875 476.328 90.5365 476.333 89.75V78.125ZM489.427 93.2344C488.192 93.2344 487.13 92.9844 486.239 92.4844C485.354 91.9792 484.672 91.2656 484.192 90.3437C483.713 89.4167 483.474 88.3203 483.474 87.0547C483.474 85.8203 483.713 84.737 484.192 83.8047C484.672 82.8724 485.346 82.1458 486.216 81.625C487.091 81.1042 488.117 80.8438 489.294 80.8438C490.086 80.8438 490.823 80.9714 491.505 81.2266C492.192 81.4766 492.791 81.8542 493.302 82.3594C493.817 82.8646 494.218 83.5 494.505 84.2656C494.791 85.026 494.935 85.9167 494.935 86.9375V87.8516H484.802V85.7891H491.802C491.802 85.3099 491.698 84.8854 491.489 84.5156C491.281 84.1458 490.992 83.8568 490.622 83.6484C490.257 83.4349 489.833 83.3281 489.349 83.3281C488.843 83.3281 488.396 83.4453 488.005 83.6797C487.619 83.9089 487.317 84.2187 487.099 84.6094C486.88 84.9948 486.768 85.4245 486.763 85.8984V87.8594C486.763 88.4531 486.872 88.9661 487.091 89.3984C487.315 89.8307 487.63 90.1641 488.036 90.3984C488.442 90.6328 488.924 90.75 489.481 90.75C489.851 90.75 490.19 90.6979 490.497 90.5938C490.804 90.4896 491.067 90.3333 491.286 90.125C491.505 89.9167 491.672 89.6615 491.786 89.3594L494.864 89.5625C494.708 90.3021 494.388 90.9479 493.903 91.5C493.424 92.0469 492.804 92.474 492.044 92.7813C491.289 93.0833 490.416 93.2344 489.427 93.2344ZM501.528 93.1953C500.617 93.1953 499.791 92.9609 499.052 92.4922C498.317 92.0182 497.734 91.3229 497.302 90.4062C496.875 89.4844 496.661 88.3542 496.661 87.0156C496.661 85.6406 496.882 84.4974 497.325 83.5859C497.768 82.6693 498.356 81.9844 499.091 81.5313C499.83 81.0729 500.64 80.8438 501.521 80.8438C502.192 80.8438 502.752 80.9583 503.2 81.1875C503.653 81.4115 504.018 81.6927 504.294 82.0312C504.575 82.3646 504.789 82.6927 504.935 83.0156H505.036V77H508.356V93H505.075V91.0781H504.935C504.778 91.4115 504.557 91.7422 504.271 92.0703C503.989 92.3932 503.622 92.6615 503.169 92.875C502.721 93.0885 502.174 93.1953 501.528 93.1953ZM502.583 90.5469C503.119 90.5469 503.573 90.401 503.942 90.1094C504.317 89.8125 504.604 89.3984 504.802 88.8672C505.005 88.3359 505.106 87.7135 505.106 87C505.106 86.2865 505.007 85.6667 504.81 85.1406C504.612 84.6146 504.325 84.2083 503.95 83.9219C503.575 83.6354 503.119 83.4922 502.583 83.4922C502.036 83.4922 501.575 83.6406 501.2 83.9375C500.825 84.2344 500.541 84.6458 500.349 85.1719C500.156 85.6979 500.06 86.3073 500.06 87C500.06 87.6979 500.156 88.3151 500.349 88.8516C500.547 89.3828 500.83 89.7995 501.2 90.1016C501.575 90.3984 502.036 90.5469 502.583 90.5469ZM516.247 93V77H522.653C523.83 77 524.812 77.1745 525.599 77.5234C526.385 77.8724 526.976 78.3568 527.372 78.9766C527.768 79.5911 527.966 80.2995 527.966 81.1016C527.966 81.7266 527.841 82.276 527.591 82.75C527.341 83.2187 526.997 83.6042 526.56 83.9062C526.127 84.2031 525.632 84.4141 525.075 84.5391V84.6953C525.685 84.7214 526.255 84.8932 526.786 85.2109C527.323 85.5286 527.757 85.974 528.091 86.5469C528.424 87.1146 528.591 87.7917 528.591 88.5781C528.591 89.4271 528.38 90.1849 527.958 90.8516C527.541 91.513 526.924 92.0365 526.106 92.4219C525.289 92.8073 524.281 93 523.083 93H516.247ZM519.63 90.2344H522.388C523.33 90.2344 524.018 90.0547 524.45 89.6953C524.882 89.3307 525.099 88.8464 525.099 88.2422C525.099 87.7995 524.992 87.4089 524.778 87.0703C524.565 86.7318 524.26 86.4661 523.864 86.2734C523.474 86.0807 523.007 85.9844 522.466 85.9844H519.63V90.2344ZM519.63 83.6953H522.138C522.601 83.6953 523.013 83.6146 523.372 83.4531C523.737 83.2865 524.023 83.0521 524.231 82.75C524.445 82.4479 524.552 82.0859 524.552 81.6641C524.552 81.0859 524.346 80.6198 523.935 80.2656C523.528 79.9115 522.95 79.7344 522.2 79.7344H519.63V83.6953ZM532.784 97.5C532.362 97.5 531.966 97.4661 531.597 97.3984C531.232 97.3359 530.93 97.2552 530.69 97.1562L531.44 94.6719C531.831 94.7917 532.183 94.8568 532.495 94.8672C532.813 94.8776 533.086 94.8047 533.315 94.6484C533.55 94.4922 533.74 94.2266 533.886 93.8516L534.081 93.3438L529.776 81H533.276L535.761 89.8125H535.886L538.394 81H541.917L537.253 94.2969C537.029 94.9427 536.724 95.5052 536.339 95.9844C535.959 96.4688 535.477 96.8411 534.894 97.1016C534.31 97.3672 533.607 97.5 532.784 97.5ZM563.478 85C563.478 86.7448 563.147 88.2292 562.485 89.4531C561.829 90.6771 560.933 91.612 559.798 92.2578C558.668 92.8984 557.397 93.2187 555.985 93.2187C554.563 93.2187 553.287 92.8958 552.157 92.25C551.027 91.6042 550.134 90.6693 549.478 89.4453C548.821 88.2214 548.493 86.7396 548.493 85C548.493 83.2552 548.821 81.7708 549.478 80.5469C550.134 79.3229 551.027 78.3906 552.157 77.75C553.287 77.1042 554.563 76.7812 555.985 76.7812C557.397 76.7812 558.668 77.1042 559.798 77.75C560.933 78.3906 561.829 79.3229 562.485 80.5469C563.147 81.7708 563.478 83.2552 563.478 85ZM560.048 85C560.048 83.8698 559.879 82.9167 559.54 82.1406C559.207 81.3646 558.735 80.776 558.126 80.375C557.517 79.974 556.803 79.7734 555.985 79.7734C555.168 79.7734 554.454 79.974 553.845 80.375C553.235 80.776 552.761 81.3646 552.423 82.1406C552.09 82.9167 551.923 83.8698 551.923 85C551.923 86.1302 552.09 87.0833 552.423 87.8594C552.761 88.6354 553.235 89.224 553.845 89.625C554.454 90.026 555.168 90.2266 555.985 90.2266C556.803 90.2266 557.517 90.026 558.126 89.625C558.735 89.224 559.207 88.6354 559.54 87.8594C559.879 87.0833 560.048 86.1302 560.048 85ZM577.108 81L572.913 93H569.163L564.968 81H568.483L570.976 89.5859H571.101L573.585 81H577.108ZM583.894 93.2344C582.659 93.2344 581.597 92.9844 580.706 92.4844C579.821 91.9792 579.138 91.2656 578.659 90.3437C578.18 89.4167 577.94 88.3203 577.94 87.0547C577.94 85.8203 578.18 84.737 578.659 83.8047C579.138 82.8724 579.813 82.1458 580.683 81.625C581.558 81.1042 582.584 80.8438 583.761 80.8438C584.552 80.8438 585.289 80.9714 585.972 81.2266C586.659 81.4766 587.258 81.8542 587.769 82.3594C588.284 82.8646 588.685 83.5 588.972 84.2656C589.258 85.026 589.401 85.9167 589.401 86.9375V87.8516H579.269V85.7891H586.269C586.269 85.3099 586.164 84.8854 585.956 84.5156C585.748 84.1458 585.459 83.8568 585.089 83.6484C584.724 83.4349 584.3 83.3281 583.815 83.3281C583.31 83.3281 582.862 83.4453 582.472 83.6797C582.086 83.9089 581.784 84.2187 581.565 84.6094C581.347 84.9948 581.235 85.4245 581.229 85.8984V87.8594C581.229 88.4531 581.339 88.9661 581.558 89.3984C581.782 89.8307 582.097 90.1641 582.503 90.3984C582.909 90.6328 583.391 90.75 583.948 90.75C584.318 90.75 584.657 90.6979 584.964 90.5938C585.271 90.4896 585.534 90.3333 585.753 90.125C585.972 89.9167 586.138 89.6615 586.253 89.3594L589.331 89.5625C589.175 90.3021 588.854 90.9479 588.37 91.5C587.891 92.0469 587.271 92.474 586.511 92.7813C585.756 93.0833 584.883 93.2344 583.894 93.2344ZM591.573 93V81H594.8V83.0937H594.925C595.144 82.349 595.511 81.7865 596.026 81.4063C596.542 81.0208 597.136 80.8281 597.808 80.8281C597.974 80.8281 598.154 80.8385 598.347 80.8594C598.539 80.8802 598.709 80.9089 598.854 80.9453V83.8984C598.698 83.8516 598.482 83.8099 598.206 83.7734C597.93 83.737 597.677 83.7188 597.448 83.7188C596.959 83.7188 596.521 83.8255 596.136 84.0391C595.756 84.2474 595.453 84.5391 595.229 84.9141C595.011 85.2891 594.901 85.7214 594.901 86.2109V93H591.573ZM612.597 77V93H609.214V80.2109H609.12L605.456 82.5078V79.5078L609.417 77H612.597ZM622.673 93.3516C621.329 93.3464 620.173 93.0156 619.204 92.3594C618.241 91.7031 617.498 90.7526 616.978 89.5078C616.462 88.263 616.207 86.7656 616.212 85.0156C616.212 83.2708 616.47 81.7839 616.985 80.5547C617.506 79.3255 618.248 78.3906 619.212 77.75C620.181 77.1042 621.334 76.7812 622.673 76.7812C624.011 76.7812 625.162 77.1042 626.126 77.75C627.095 78.3958 627.84 79.3333 628.36 80.5625C628.881 81.7865 629.139 83.2708 629.134 85.0156C629.134 86.7708 628.873 88.2708 628.353 89.5156C627.837 90.7604 627.097 91.7109 626.134 92.3672C625.17 93.0234 624.017 93.3516 622.673 93.3516ZM622.673 90.5469C623.59 90.5469 624.321 90.0859 624.868 89.1641C625.415 88.2422 625.686 86.8594 625.681 85.0156C625.681 83.8021 625.556 82.7917 625.306 81.9844C625.061 81.1771 624.712 80.5703 624.259 80.1641C623.811 79.7578 623.282 79.5547 622.673 79.5547C621.761 79.5547 621.032 80.0104 620.485 80.9219C619.938 81.8333 619.662 83.1979 619.657 85.0156C619.657 86.2448 619.78 87.2708 620.024 88.0937C620.274 88.9115 620.626 89.526 621.079 89.9375C621.532 90.3437 622.063 90.5469 622.673 90.5469ZM637.819 93.3516C636.476 93.3464 635.319 93.0156 634.351 92.3594C633.387 91.7031 632.645 90.7526 632.124 89.5078C631.608 88.263 631.353 86.7656 631.358 85.0156C631.358 83.2708 631.616 81.7839 632.132 80.5547C632.653 79.3255 633.395 78.3906 634.358 77.75C635.327 77.1042 636.481 76.7812 637.819 76.7812C639.158 76.7812 640.309 77.1042 641.272 77.75C642.241 78.3958 642.986 79.3333 643.507 80.5625C644.028 81.7865 644.285 83.2708 644.28 85.0156C644.28 86.7708 644.02 88.2708 643.499 89.5156C642.983 90.7604 642.244 91.7109 641.28 92.3672C640.317 93.0234 639.163 93.3516 637.819 93.3516ZM637.819 90.5469C638.736 90.5469 639.468 90.0859 640.015 89.1641C640.562 88.2422 640.832 86.8594 640.827 85.0156C640.827 83.8021 640.702 82.7917 640.452 81.9844C640.207 81.1771 639.858 80.5703 639.405 80.1641C638.957 79.7578 638.429 79.5547 637.819 79.5547C636.908 79.5547 636.179 80.0104 635.632 80.9219C635.085 81.8333 634.809 83.1979 634.804 85.0156C634.804 86.2448 634.926 87.2708 635.171 88.0937C635.421 88.9115 635.772 89.526 636.226 89.9375C636.679 90.3437 637.21 90.5469 637.819 90.5469ZM651.474 90.5625V79.5H654.271V90.5625H651.474ZM647.341 86.4297V83.6328H658.403V86.4297H647.341ZM675.511 81.6016C675.448 80.9714 675.18 80.4818 674.706 80.1328C674.232 79.7839 673.589 79.6094 672.776 79.6094C672.224 79.6094 671.758 79.6875 671.378 79.8437C670.998 79.9948 670.706 80.2057 670.503 80.4766C670.305 80.7474 670.206 81.0547 670.206 81.3984C670.196 81.6849 670.256 81.9349 670.386 82.1484C670.521 82.362 670.706 82.5469 670.94 82.7031C671.175 82.8542 671.446 82.987 671.753 83.1016C672.06 83.2109 672.388 83.3047 672.737 83.3828L674.175 83.7266C674.873 83.8828 675.513 84.0911 676.097 84.3516C676.68 84.612 677.185 84.9323 677.612 85.3125C678.039 85.6927 678.37 86.1406 678.604 86.6562C678.844 87.1719 678.966 87.763 678.972 88.4297C678.966 89.4089 678.716 90.2578 678.222 90.9766C677.732 91.6901 677.024 92.2448 676.097 92.6406C675.175 93.0312 674.063 93.2266 672.761 93.2266C671.469 93.2266 670.344 93.0286 669.386 92.6328C668.433 92.237 667.688 91.651 667.151 90.875C666.62 90.0937 666.341 89.1276 666.315 87.9766H669.589C669.625 88.513 669.779 88.9609 670.05 89.3203C670.326 89.6745 670.693 89.9427 671.151 90.125C671.615 90.3021 672.138 90.3906 672.722 90.3906C673.295 90.3906 673.792 90.3073 674.214 90.1406C674.641 89.974 674.972 89.7422 675.206 89.4453C675.44 89.1484 675.558 88.8073 675.558 88.4219C675.558 88.0625 675.451 87.7604 675.237 87.5156C675.029 87.2708 674.722 87.0625 674.315 86.8906C673.914 86.7187 673.422 86.5625 672.839 86.4219L671.097 85.9844C669.748 85.6562 668.683 85.1432 667.901 84.4453C667.12 83.7474 666.732 82.8073 666.737 81.625C666.732 80.6562 666.99 79.8099 667.511 79.0859C668.037 78.362 668.758 77.7969 669.675 77.3906C670.591 76.9844 671.633 76.7812 672.8 76.7812C673.987 76.7812 675.024 76.9844 675.909 77.3906C676.8 77.7969 677.493 78.362 677.987 79.0859C678.482 79.8099 678.737 80.6484 678.753 81.6016H675.511ZM687.567 81V83.5H680.341V81H687.567ZM681.981 78.125H685.31V89.3125C685.31 89.6198 685.356 89.8594 685.45 90.0312C685.544 90.1979 685.674 90.3151 685.841 90.3828C686.013 90.4505 686.211 90.4844 686.435 90.4844C686.591 90.4844 686.747 90.4714 686.903 90.4453C687.06 90.4141 687.179 90.3906 687.263 90.375L687.786 92.8516C687.619 92.9036 687.385 92.9635 687.083 93.0313C686.781 93.1042 686.414 93.1484 685.981 93.1641C685.179 93.1953 684.476 93.0885 683.872 92.8437C683.273 92.599 682.807 92.2187 682.474 91.7031C682.14 91.1875 681.976 90.5365 681.981 89.75V78.125ZM693.157 93.2266C692.392 93.2266 691.709 93.0938 691.11 92.8281C690.511 92.5573 690.037 92.1589 689.688 91.6328C689.345 91.1016 689.173 90.4401 689.173 89.6484C689.173 88.9818 689.295 88.4219 689.54 87.9687C689.785 87.5156 690.118 87.151 690.54 86.875C690.962 86.599 691.441 86.3906 691.978 86.25C692.519 86.1094 693.087 86.0104 693.681 85.9531C694.379 85.8802 694.941 85.8125 695.368 85.75C695.795 85.6823 696.105 85.5833 696.298 85.4531C696.491 85.3229 696.587 85.1302 696.587 84.875V84.8281C696.587 84.3333 696.431 83.9505 696.118 83.6797C695.811 83.4089 695.373 83.2734 694.806 83.2734C694.207 83.2734 693.73 83.4062 693.376 83.6719C693.022 83.9323 692.787 84.2604 692.673 84.6562L689.595 84.4062C689.751 83.6771 690.058 83.0469 690.517 82.5156C690.975 81.9792 691.566 81.5677 692.29 81.2812C693.019 80.9896 693.863 80.8438 694.821 80.8438C695.488 80.8438 696.126 80.9219 696.735 81.0781C697.35 81.2344 697.894 81.4766 698.368 81.8047C698.847 82.1328 699.225 82.5547 699.501 83.0703C699.777 83.5807 699.915 84.1927 699.915 84.9062V93H696.759V91.3359H696.665C696.472 91.7109 696.215 92.0417 695.892 92.3281C695.569 92.6094 695.181 92.8307 694.728 92.9922C694.274 93.1484 693.751 93.2266 693.157 93.2266ZM694.11 90.9297C694.6 90.9297 695.032 90.8333 695.407 90.6406C695.782 90.4427 696.076 90.1771 696.29 89.8438C696.504 89.5104 696.61 89.1328 696.61 88.7109V87.4375C696.506 87.5052 696.363 87.5677 696.181 87.625C696.004 87.6771 695.803 87.7266 695.579 87.7734C695.355 87.8151 695.131 87.8542 694.907 87.8906C694.683 87.9219 694.48 87.9505 694.298 87.9766C693.907 88.0339 693.566 88.125 693.274 88.25C692.983 88.375 692.756 88.5443 692.595 88.7578C692.433 88.9661 692.353 89.2266 692.353 89.5391C692.353 89.9922 692.517 90.3385 692.845 90.5781C693.178 90.8125 693.6 90.9297 694.11 90.9297ZM702.497 93V81H705.724V83.0937H705.849C706.067 82.349 706.435 81.7865 706.95 81.4063C707.466 81.0208 708.06 80.8281 708.731 80.8281C708.898 80.8281 709.078 80.8385 709.271 80.8594C709.463 80.8802 709.632 80.9089 709.778 80.9453V83.8984C709.622 83.8516 709.406 83.8099 709.13 83.7734C708.854 83.737 708.601 83.7188 708.372 83.7188C707.882 83.7188 707.445 83.8255 707.06 84.0391C706.679 84.2474 706.377 84.5391 706.153 84.9141C705.935 85.2891 705.825 85.7214 705.825 86.2109V93H702.497ZM718.483 81V83.5H711.257V81H718.483ZM712.897 78.125H716.226V89.3125C716.226 89.6198 716.272 89.8594 716.366 90.0312C716.46 90.1979 716.59 90.3151 716.757 90.3828C716.929 90.4505 717.127 90.4844 717.351 90.4844C717.507 90.4844 717.663 90.4714 717.819 90.4453C717.976 90.4141 718.095 90.3906 718.179 90.375L718.702 92.8516C718.535 92.9036 718.301 92.9635 717.999 93.0313C717.697 93.1042 717.33 93.1484 716.897 93.1641C716.095 93.1953 715.392 93.0885 714.788 92.8437C714.189 92.599 713.723 92.2187 713.39 91.7031C713.056 91.1875 712.892 90.5365 712.897 89.75V78.125ZM728.347 87.8906V81H731.675V93H728.479V90.8203H728.354C728.084 91.5234 727.633 92.0885 727.003 92.5156C726.378 92.9427 725.615 93.1563 724.714 93.1563C723.912 93.1563 723.206 92.974 722.597 92.6094C721.987 92.2448 721.511 91.7266 721.167 91.0547C720.828 90.3828 720.657 89.5781 720.651 88.6406V81H723.979V88.0469C723.985 88.7552 724.175 89.3151 724.55 89.7266C724.925 90.138 725.427 90.3437 726.058 90.3437C726.459 90.3437 726.834 90.2526 727.183 90.0703C727.532 89.8828 727.813 89.6068 728.026 89.2422C728.245 88.8776 728.352 88.4271 728.347 87.8906ZM734.337 97.5V81H737.618V83.0156H737.767C737.912 82.6927 738.123 82.3646 738.399 82.0312C738.681 81.6927 739.045 81.4115 739.493 81.1875C739.946 80.9583 740.509 80.8438 741.181 80.8438C742.056 80.8438 742.863 81.0729 743.603 81.5313C744.342 81.9844 744.933 82.6693 745.376 83.5859C745.819 84.4974 746.04 85.6406 746.04 87.0156C746.04 88.3542 745.824 89.4844 745.392 90.4062C744.965 91.3229 744.381 92.0182 743.642 92.4922C742.907 92.9609 742.084 93.1953 741.173 93.1953C740.527 93.1953 739.978 93.0885 739.524 92.875C739.076 92.6615 738.709 92.3932 738.423 92.0703C738.136 91.7422 737.918 91.4115 737.767 91.0781H737.665V97.5H734.337ZM737.595 87C737.595 87.7135 737.694 88.3359 737.892 88.8672C738.09 89.3984 738.376 89.8125 738.751 90.1094C739.126 90.401 739.582 90.5469 740.118 90.5469C740.66 90.5469 741.118 90.3984 741.493 90.1016C741.868 89.7995 742.152 89.3828 742.345 88.8516C742.543 88.3151 742.642 87.6979 742.642 87C742.642 86.3073 742.545 85.6979 742.353 85.1719C742.16 84.6458 741.876 84.2344 741.501 83.9375C741.126 83.6406 740.665 83.4922 740.118 83.4922C739.576 83.4922 739.118 83.6354 738.743 83.9219C738.373 84.2083 738.09 84.6146 737.892 85.1406C737.694 85.6667 737.595 86.2865 737.595 87ZM758.243 84.4219L755.196 84.6094C755.144 84.349 755.032 84.1146 754.86 83.9062C754.688 83.6927 754.462 83.5234 754.181 83.3984C753.905 83.2682 753.574 83.2031 753.188 83.2031C752.673 83.2031 752.238 83.3125 751.884 83.5312C751.53 83.7448 751.353 84.0312 751.353 84.3906C751.353 84.6771 751.467 84.9193 751.696 85.1172C751.925 85.3151 752.319 85.474 752.876 85.5937L755.048 86.0312C756.215 86.2708 757.084 86.6562 757.657 87.1875C758.23 87.7187 758.517 88.4167 758.517 89.2812C758.517 90.0677 758.285 90.7578 757.821 91.3516C757.363 91.9453 756.733 92.4089 755.931 92.7422C755.134 93.0703 754.215 93.2344 753.173 93.2344C751.584 93.2344 750.319 92.9036 749.376 92.2422C748.438 91.5755 747.889 90.6693 747.728 89.5234L751.001 89.3516C751.1 89.8359 751.34 90.2057 751.72 90.4609C752.1 90.7109 752.587 90.8359 753.181 90.8359C753.764 90.8359 754.233 90.724 754.587 90.5C754.946 90.2708 755.129 89.9766 755.134 89.6172C755.129 89.3151 755.001 89.0677 754.751 88.875C754.501 88.6771 754.116 88.526 753.595 88.4219L751.517 88.0078C750.345 87.7734 749.472 87.3672 748.899 86.7891C748.332 86.2109 748.048 85.474 748.048 84.5781C748.048 83.8073 748.256 83.1432 748.673 82.5859C749.095 82.0286 749.686 81.599 750.446 81.2969C751.212 80.9948 752.108 80.8438 753.134 80.8438C754.649 80.8438 755.842 81.1641 756.712 81.8047C757.587 82.4453 758.097 83.3177 758.243 84.4219ZM769.126 93.2266C768.36 93.2266 767.678 93.0938 767.079 92.8281C766.48 92.5573 766.006 92.1589 765.657 91.6328C765.313 91.1016 765.142 90.4401 765.142 89.6484C765.142 88.9818 765.264 88.4219 765.509 87.9687C765.754 87.5156 766.087 87.151 766.509 86.875C766.931 86.599 767.41 86.3906 767.946 86.25C768.488 86.1094 769.056 86.0104 769.649 85.9531C770.347 85.8802 770.91 85.8125 771.337 85.75C771.764 85.6823 772.074 85.5833 772.267 85.4531C772.459 85.3229 772.556 85.1302 772.556 84.875V84.8281C772.556 84.3333 772.399 83.9505 772.087 83.6797C771.78 83.4089 771.342 83.2734 770.774 83.2734C770.175 83.2734 769.699 83.4062 769.345 83.6719C768.991 83.9323 768.756 84.2604 768.642 84.6562L765.563 84.4062C765.72 83.6771 766.027 83.0469 766.485 82.5156C766.944 81.9792 767.535 81.5677 768.259 81.2812C768.988 80.9896 769.832 80.8438 770.79 80.8438C771.457 80.8438 772.095 80.9219 772.704 81.0781C773.319 81.2344 773.863 81.4766 774.337 81.8047C774.816 82.1328 775.194 82.5547 775.47 83.0703C775.746 83.5807 775.884 84.1927 775.884 84.9062V93H772.728V91.3359H772.634C772.441 91.7109 772.183 92.0417 771.86 92.3281C771.537 92.6094 771.149 92.8307 770.696 92.9922C770.243 93.1484 769.72 93.2266 769.126 93.2266ZM770.079 90.9297C770.569 90.9297 771.001 90.8333 771.376 90.6406C771.751 90.4427 772.045 90.1771 772.259 89.8438C772.472 89.5104 772.579 89.1328 772.579 88.7109V87.4375C772.475 87.5052 772.332 87.5677 772.149 87.625C771.972 87.6771 771.772 87.7266 771.548 87.7734C771.324 87.8151 771.1 87.8542 770.876 87.8906C770.652 87.9219 770.449 87.9505 770.267 87.9766C769.876 88.0339 769.535 88.125 769.243 88.25C768.951 88.375 768.725 88.5443 768.563 88.7578C768.402 88.9661 768.321 89.2266 768.321 89.5391C768.321 89.9922 768.485 90.3385 768.813 90.5781C769.147 90.8125 769.569 90.9297 770.079 90.9297ZM781.794 86.0625V93H778.466V81H781.638V83.1172H781.778C782.044 82.4193 782.489 81.8672 783.114 81.4609C783.739 81.0495 784.497 80.8438 785.388 80.8438C786.221 80.8438 786.948 81.026 787.567 81.3906C788.187 81.7552 788.669 82.276 789.013 82.9531C789.356 83.625 789.528 84.4271 789.528 85.3594V93H786.2V85.9531C786.205 85.2187 786.018 84.6458 785.638 84.2344C785.257 83.8177 784.734 83.6094 784.067 83.6094C783.619 83.6094 783.224 83.7057 782.88 83.8984C782.541 84.0911 782.276 84.3724 782.083 84.7422C781.896 85.1068 781.799 85.5469 781.794 86.0625ZM796.573 93.1953C795.662 93.1953 794.836 92.9609 794.097 92.4922C793.362 92.0182 792.779 91.3229 792.347 90.4062C791.92 89.4844 791.706 88.3542 791.706 87.0156C791.706 85.6406 791.927 84.4974 792.37 83.5859C792.813 82.6693 793.401 81.9844 794.136 81.5313C794.875 81.0729 795.685 80.8438 796.565 80.8438C797.237 80.8438 797.797 80.9583 798.245 81.1875C798.698 81.4115 799.063 81.6927 799.339 82.0312C799.62 82.3646 799.834 82.6927 799.979 83.0156H800.081V77H803.401V93H800.12V91.0781H799.979C799.823 91.4115 799.602 91.7422 799.315 92.0703C799.034 92.3932 798.667 92.6615 798.214 92.875C797.766 93.0885 797.219 93.1953 796.573 93.1953ZM797.628 90.5469C798.164 90.5469 798.618 90.401 798.987 90.1094C799.362 89.8125 799.649 89.3984 799.847 88.8672C800.05 88.3359 800.151 87.7135 800.151 87C800.151 86.2865 800.052 85.6667 799.854 85.1406C799.657 84.6146 799.37 84.2083 798.995 83.9219C798.62 83.6354 798.164 83.4922 797.628 83.4922C797.081 83.4922 796.62 83.6406 796.245 83.9375C795.87 84.2344 795.586 84.6458 795.394 85.1719C795.201 85.6979 795.104 86.3073 795.104 87C795.104 87.6979 795.201 88.3151 795.394 88.8516C795.591 89.3828 795.875 89.7995 796.245 90.1016C796.62 90.3984 797.081 90.5469 797.628 90.5469ZM817.683 81V83.5H810.276V81H817.683ZM811.972 93V80.1328C811.972 79.263 812.141 78.5417 812.479 77.9687C812.823 77.3958 813.292 76.9661 813.886 76.6797C814.479 76.3932 815.154 76.25 815.909 76.25C816.42 76.25 816.886 76.2891 817.308 76.3672C817.735 76.4453 818.052 76.5156 818.261 76.5781L817.667 79.0781C817.537 79.0365 817.375 78.9974 817.183 78.9609C816.995 78.9245 816.802 78.9062 816.604 78.9062C816.115 78.9062 815.774 79.0208 815.581 79.25C815.388 79.474 815.292 79.7891 815.292 80.1953V93H811.972ZM819.716 93V81H822.942V83.0937H823.067C823.286 82.349 823.653 81.7865 824.169 81.4063C824.685 81.0208 825.278 80.8281 825.95 80.8281C826.117 80.8281 826.297 80.8385 826.489 80.8594C826.682 80.8802 826.851 80.9089 826.997 80.9453V83.8984C826.841 83.8516 826.625 83.8099 826.349 83.7734C826.073 83.737 825.82 83.7188 825.591 83.7188C825.101 83.7188 824.664 83.8255 824.278 84.0391C823.898 84.2474 823.596 84.5391 823.372 84.9141C823.153 85.2891 823.044 85.7214 823.044 86.2109V93H819.716ZM833.628 93.2344C832.394 93.2344 831.331 92.9844 830.44 92.4844C829.555 91.9792 828.873 91.2656 828.394 90.3437C827.914 89.4167 827.675 88.3203 827.675 87.0547C827.675 85.8203 827.914 84.737 828.394 83.8047C828.873 82.8724 829.547 82.1458 830.417 81.625C831.292 81.1042 832.318 80.8438 833.495 80.8438C834.287 80.8438 835.024 80.9714 835.706 81.2266C836.394 81.4766 836.993 81.8542 837.503 82.3594C838.019 82.8646 838.42 83.5 838.706 84.2656C838.993 85.026 839.136 85.9167 839.136 86.9375V87.8516H829.003V85.7891H836.003C836.003 85.3099 835.899 84.8854 835.69 84.5156C835.482 84.1458 835.193 83.8568 834.823 83.6484C834.459 83.4349 834.034 83.3281 833.55 83.3281C833.045 83.3281 832.597 83.4453 832.206 83.6797C831.821 83.9089 831.519 84.2187 831.3 84.6094C831.081 84.9948 830.969 85.4245 830.964 85.8984V87.8594C830.964 88.4531 831.073 88.9661 831.292 89.3984C831.516 89.8307 831.831 90.1641 832.237 90.3984C832.644 90.6328 833.125 90.75 833.683 90.75C834.052 90.75 834.391 90.6979 834.698 90.5938C835.006 90.4896 835.269 90.3333 835.487 90.125C835.706 89.9167 835.873 89.6615 835.987 89.3594L839.065 89.5625C838.909 90.3021 838.589 90.9479 838.104 91.5C837.625 92.0469 837.006 92.474 836.245 92.7813C835.49 93.0833 834.618 93.2344 833.628 93.2344ZM846.776 93.2344C845.542 93.2344 844.479 92.9844 843.589 92.4844C842.703 91.9792 842.021 91.2656 841.542 90.3437C841.063 89.4167 840.823 88.3203 840.823 87.0547C840.823 85.8203 841.063 84.737 841.542 83.8047C842.021 82.8724 842.696 82.1458 843.565 81.625C844.44 81.1042 845.466 80.8438 846.644 80.8438C847.435 80.8438 848.172 80.9714 848.854 81.2266C849.542 81.4766 850.141 81.8542 850.651 82.3594C851.167 82.8646 851.568 83.5 851.854 84.2656C852.141 85.026 852.284 85.9167 852.284 86.9375V87.8516H842.151V85.7891H849.151C849.151 85.3099 849.047 84.8854 848.839 84.5156C848.631 84.1458 848.341 83.8568 847.972 83.6484C847.607 83.4349 847.183 83.3281 846.698 83.3281C846.193 83.3281 845.745 83.4453 845.354 83.6797C844.969 83.9089 844.667 84.2187 844.448 84.6094C844.229 84.9948 844.118 85.4245 844.112 85.8984V87.8594C844.112 88.4531 844.222 88.9661 844.44 89.3984C844.664 89.8307 844.979 90.1641 845.386 90.3984C845.792 90.6328 846.274 90.75 846.831 90.75C847.201 90.75 847.539 90.6979 847.847 90.5938C848.154 90.4896 848.417 90.3333 848.636 90.125C848.854 89.9167 849.021 89.6615 849.136 89.3594L852.214 89.5625C852.058 90.3021 851.737 90.9479 851.253 91.5C850.774 92.0469 850.154 92.474 849.394 92.7813C848.638 93.0833 847.766 93.2344 846.776 93.2344ZM857.784 77V93H854.456V77H857.784ZM863.872 93.2266C863.106 93.2266 862.424 93.0938 861.825 92.8281C861.226 92.5573 860.752 92.1589 860.403 91.6328C860.06 91.1016 859.888 90.4401 859.888 89.6484C859.888 88.9818 860.01 88.4219 860.255 87.9687C860.5 87.5156 860.833 87.151 861.255 86.875C861.677 86.599 862.156 86.3906 862.692 86.25C863.234 86.1094 863.802 86.0104 864.396 85.9531C865.093 85.8802 865.656 85.8125 866.083 85.75C866.51 85.6823 866.82 85.5833 867.013 85.4531C867.205 85.3229 867.302 85.1302 867.302 84.875V84.8281C867.302 84.3333 867.146 83.9505 866.833 83.6797C866.526 83.4089 866.088 83.2734 865.521 83.2734C864.922 83.2734 864.445 83.4062 864.091 83.6719C863.737 83.9323 863.502 84.2604 863.388 84.6562L860.31 84.4062C860.466 83.6771 860.773 83.0469 861.231 82.5156C861.69 81.9792 862.281 81.5677 863.005 81.2812C863.734 80.9896 864.578 80.8438 865.536 80.8438C866.203 80.8438 866.841 80.9219 867.45 81.0781C868.065 81.2344 868.609 81.4766 869.083 81.8047C869.562 82.1328 869.94 82.5547 870.216 83.0703C870.492 83.5807 870.63 84.1927 870.63 84.9062V93H867.474V91.3359H867.38C867.187 91.7109 866.929 92.0417 866.606 92.3281C866.284 92.6094 865.896 92.8307 865.442 92.9922C864.989 93.1484 864.466 93.2266 863.872 93.2266ZM864.825 90.9297C865.315 90.9297 865.747 90.8333 866.122 90.6406C866.497 90.4427 866.791 90.1771 867.005 89.8438C867.218 89.5104 867.325 89.1328 867.325 88.7109V87.4375C867.221 87.5052 867.078 87.5677 866.896 87.625C866.718 87.6771 866.518 87.7266 866.294 87.7734C866.07 87.8151 865.846 87.8542 865.622 87.8906C865.398 87.9219 865.195 87.9505 865.013 87.9766C864.622 88.0339 864.281 88.125 863.989 88.25C863.698 88.375 863.471 88.5443 863.31 88.7578C863.148 88.9661 863.067 89.2266 863.067 89.5391C863.067 89.9922 863.231 90.3385 863.56 90.5781C863.893 90.8125 864.315 90.9297 864.825 90.9297ZM876.54 86.0625V93H873.212V81H876.384V83.1172H876.524C876.79 82.4193 877.235 81.8672 877.86 81.4609C878.485 81.0495 879.243 80.8438 880.134 80.8438C880.967 80.8438 881.694 81.026 882.313 81.3906C882.933 81.7552 883.415 82.276 883.759 82.9531C884.103 83.625 884.274 84.4271 884.274 85.3594V93H880.946V85.9531C880.951 85.2187 880.764 84.6458 880.384 84.2344C880.004 83.8177 879.48 83.6094 878.813 83.6094C878.366 83.6094 877.97 83.7057 877.626 83.8984C877.287 84.0911 877.022 84.3724 876.829 84.7422C876.642 85.1068 876.545 85.5469 876.54 86.0625ZM892.319 93.2344C891.09 93.2344 890.033 92.974 889.147 92.4531C888.267 91.9271 887.59 91.1979 887.116 90.2656C886.647 89.3333 886.413 88.2604 886.413 87.0469C886.413 85.8177 886.65 84.7396 887.124 83.8125C887.603 82.8802 888.283 82.1536 889.163 81.6328C890.043 81.1068 891.09 80.8438 892.304 80.8438C893.351 80.8438 894.267 81.0339 895.054 81.4141C895.84 81.7943 896.463 82.3281 896.921 83.0156C897.379 83.7031 897.632 84.5104 897.679 85.4375H894.538C894.45 84.8385 894.215 84.3568 893.835 83.9922C893.46 83.6224 892.968 83.4375 892.358 83.4375C891.843 83.4375 891.392 83.5781 891.007 83.8594C890.627 84.1354 890.33 84.5391 890.116 85.0703C889.903 85.6016 889.796 86.2448 889.796 87C889.796 87.7656 889.9 88.4167 890.108 88.9531C890.322 89.4896 890.621 89.8984 891.007 90.1797C891.392 90.4609 891.843 90.6016 892.358 90.6016C892.739 90.6016 893.08 90.5234 893.382 90.3672C893.689 90.2109 893.942 89.9844 894.14 89.6875C894.343 89.3854 894.476 89.0234 894.538 88.6016H897.679C897.627 89.5182 897.377 90.3255 896.929 91.0234C896.486 91.7161 895.874 92.2578 895.093 92.6484C894.312 93.0391 893.387 93.2344 892.319 93.2344ZM905.278 93.2344C904.044 93.2344 902.981 92.9844 902.091 92.4844C901.205 91.9792 900.523 91.2656 900.044 90.3437C899.565 89.4167 899.325 88.3203 899.325 87.0547C899.325 85.8203 899.565 84.737 900.044 83.8047C900.523 82.8724 901.198 82.1458 902.067 81.625C902.942 81.1042 903.968 80.8438 905.146 80.8438C905.937 80.8438 906.674 80.9714 907.356 81.2266C908.044 81.4766 908.643 81.8542 909.153 82.3594C909.669 82.8646 910.07 83.5 910.356 84.2656C910.643 85.026 910.786 85.9167 910.786 86.9375V87.8516H900.653V85.7891H907.653C907.653 85.3099 907.549 84.8854 907.341 84.5156C907.132 84.1458 906.843 83.8568 906.474 83.6484C906.109 83.4349 905.685 83.3281 905.2 83.3281C904.695 83.3281 904.247 83.4453 903.856 83.6797C903.471 83.9089 903.169 84.2187 902.95 84.6094C902.731 84.9948 902.619 85.4245 902.614 85.8984V87.8594C902.614 88.4531 902.724 88.9661 902.942 89.3984C903.166 89.8307 903.481 90.1641 903.888 90.3984C904.294 90.6328 904.776 90.75 905.333 90.75C905.703 90.75 906.041 90.6979 906.349 90.5938C906.656 90.4896 906.919 90.3333 907.138 90.125C907.356 89.9167 907.523 89.6615 907.638 89.3594L910.716 89.5625C910.56 90.3021 910.239 90.9479 909.755 91.5C909.276 92.0469 908.656 92.474 907.896 92.7813C907.14 93.0833 906.268 93.2344 905.278 93.2344ZM918.112 93V77H921.44V83.0156H921.542C921.688 82.6927 921.899 82.3646 922.175 82.0312C922.456 81.6927 922.821 81.4115 923.269 81.1875C923.722 80.9583 924.284 80.8438 924.956 80.8438C925.831 80.8438 926.638 81.0729 927.378 81.5313C928.118 81.9844 928.709 82.6693 929.151 83.5859C929.594 84.4974 929.815 85.6406 929.815 87.0156C929.815 88.3542 929.599 89.4844 929.167 90.4062C928.74 91.3229 928.157 92.0182 927.417 92.4922C926.683 92.9609 925.86 93.1953 924.948 93.1953C924.302 93.1953 923.753 93.0885 923.3 92.875C922.852 92.6615 922.485 92.3932 922.198 92.0703C921.912 91.7422 921.693 91.4115 921.542 91.0781H921.394V93H918.112ZM921.37 87C921.37 87.7135 921.469 88.3359 921.667 88.8672C921.865 89.3984 922.151 89.8125 922.526 90.1094C922.901 90.401 923.357 90.5469 923.894 90.5469C924.435 90.5469 924.894 90.3984 925.269 90.1016C925.644 89.7995 925.927 89.3828 926.12 88.8516C926.318 88.3151 926.417 87.6979 926.417 87C926.417 86.3073 926.321 85.6979 926.128 85.1719C925.935 84.6458 925.651 84.2344 925.276 83.9375C924.901 83.6406 924.44 83.4922 923.894 83.4922C923.352 83.4922 922.894 83.6354 922.519 83.9219C922.149 84.2083 921.865 84.6146 921.667 85.1406C921.469 85.6667 921.37 86.2865 921.37 87ZM939.731 87.8906V81H943.06V93H939.864V90.8203H939.739C939.468 91.5234 939.018 92.0885 938.388 92.5156C937.763 92.9427 937 93.1563 936.099 93.1563C935.297 93.1563 934.591 92.974 933.981 92.6094C933.372 92.2448 932.896 91.7266 932.552 91.0547C932.213 90.3828 932.041 89.5781 932.036 88.6406V81H935.364V88.0469C935.369 88.7552 935.56 89.3151 935.935 89.7266C936.31 90.138 936.812 90.3437 937.442 90.3437C937.843 90.3437 938.218 90.2526 938.567 90.0703C938.916 89.8828 939.198 89.6068 939.411 89.2422C939.63 88.8776 939.737 88.4271 939.731 87.8906ZM955.706 84.4219L952.659 84.6094C952.607 84.349 952.495 84.1146 952.323 83.9062C952.151 83.6927 951.925 83.5234 951.644 83.3984C951.368 83.2682 951.037 83.2031 950.651 83.2031C950.136 83.2031 949.701 83.3125 949.347 83.5312C948.993 83.7448 948.815 84.0312 948.815 84.3906C948.815 84.6771 948.93 84.9193 949.159 85.1172C949.388 85.3151 949.782 85.474 950.339 85.5937L952.511 86.0312C953.677 86.2708 954.547 86.6562 955.12 87.1875C955.693 87.7187 955.979 88.4167 955.979 89.2812C955.979 90.0677 955.748 90.7578 955.284 91.3516C954.826 91.9453 954.196 92.4089 953.394 92.7422C952.597 93.0703 951.677 93.2344 950.636 93.2344C949.047 93.2344 947.782 92.9036 946.839 92.2422C945.901 91.5755 945.352 90.6693 945.19 89.5234L948.464 89.3516C948.563 89.8359 948.802 90.2057 949.183 90.4609C949.563 90.7109 950.05 90.8359 950.644 90.8359C951.227 90.8359 951.696 90.724 952.05 90.5C952.409 90.2708 952.591 89.9766 952.597 89.6172C952.591 89.3151 952.464 89.0677 952.214 88.875C951.964 88.6771 951.578 88.526 951.058 88.4219L948.979 88.0078C947.808 87.7734 946.935 87.3672 946.362 86.7891C945.795 86.2109 945.511 85.474 945.511 84.5781C945.511 83.8073 945.719 83.1432 946.136 82.5859C946.558 82.0286 947.149 81.599 947.909 81.2969C948.675 80.9948 949.571 80.8438 950.597 80.8438C952.112 80.8438 953.305 81.1641 954.175 81.8047C955.05 82.4453 955.56 83.3177 955.706 84.4219ZM958.075 93V81H961.403V93H958.075ZM959.747 79.4531C959.252 79.4531 958.828 79.2891 958.474 78.9609C958.125 78.6276 957.95 78.2292 957.95 77.7656C957.95 77.3073 958.125 76.9141 958.474 76.5859C958.828 76.2526 959.252 76.0859 959.747 76.0859C960.242 76.0859 960.664 76.2526 961.013 76.5859C961.367 76.9141 961.544 77.3073 961.544 77.7656C961.544 78.2292 961.367 78.6276 961.013 78.9609C960.664 79.2891 960.242 79.4531 959.747 79.4531ZM967.397 86.0625V93H964.069V81H967.241V83.1172H967.382C967.647 82.4193 968.093 81.8672 968.718 81.4609C969.343 81.0495 970.101 80.8438 970.991 80.8438C971.825 80.8438 972.551 81.026 973.171 81.3906C973.791 81.7552 974.272 82.276 974.616 82.9531C974.96 83.625 975.132 84.4271 975.132 85.3594V93H971.804V85.9531C971.809 85.2187 971.621 84.6458 971.241 84.2344C970.861 83.8177 970.338 83.6094 969.671 83.6094C969.223 83.6094 968.827 83.7057 968.483 83.8984C968.145 84.0911 967.879 84.3724 967.687 84.7422C967.499 85.1068 967.403 85.5469 967.397 86.0625ZM983.224 93.2344C981.989 93.2344 980.927 92.9844 980.036 92.4844C979.151 91.9792 978.468 91.2656 977.989 90.3437C977.51 89.4167 977.271 88.3203 977.271 87.0547C977.271 85.8203 977.51 84.737 977.989 83.8047C978.468 82.8724 979.143 82.1458 980.013 81.625C980.888 81.1042 981.914 80.8438 983.091 80.8438C983.882 80.8438 984.619 80.9714 985.302 81.2266C985.989 81.4766 986.588 81.8542 987.099 82.3594C987.614 82.8646 988.015 83.5 988.302 84.2656C988.588 85.026 988.731 85.9167 988.731 86.9375V87.8516H978.599V85.7891H985.599C985.599 85.3099 985.494 84.8854 985.286 84.5156C985.078 84.1458 984.789 83.8568 984.419 83.6484C984.054 83.4349 983.63 83.3281 983.146 83.3281C982.64 83.3281 982.192 83.4453 981.802 83.6797C981.416 83.9089 981.114 84.2187 980.896 84.6094C980.677 84.9948 980.565 85.4245 980.56 85.8984V87.8594C980.56 88.4531 980.669 88.9661 980.888 89.3984C981.112 89.8307 981.427 90.1641 981.833 90.3984C982.239 90.6328 982.721 90.75 983.278 90.75C983.648 90.75 983.987 90.6979 984.294 90.5938C984.601 90.4896 984.864 90.3333 985.083 90.125C985.302 89.9167 985.468 89.6615 985.583 89.3594L988.661 89.5625C988.505 90.3021 988.185 90.9479 987.7 91.5C987.221 92.0469 986.601 92.474 985.841 92.7813C985.086 93.0833 984.213 93.2344 983.224 93.2344ZM1000.89 84.4219L997.841 84.6094C997.789 84.349 997.677 84.1146 997.505 83.9062C997.333 83.6927 997.106 83.5234 996.825 83.3984C996.549 83.2682 996.218 83.2031 995.833 83.2031C995.317 83.2031 994.882 83.3125 994.528 83.5312C994.174 83.7448 993.997 84.0312 993.997 84.3906C993.997 84.6771 994.112 84.9193 994.341 85.1172C994.57 85.3151 994.963 85.474 995.521 85.5937L997.692 86.0312C998.859 86.2708 999.729 86.6562 1000.3 87.1875C1000.87 87.7187 1001.16 88.4167 1001.16 89.2812C1001.16 90.0677 1000.93 90.7578 1000.47 91.3516C1000.01 91.9453 999.377 92.4089 998.575 92.7422C997.778 93.0703 996.859 93.2344 995.817 93.2344C994.229 93.2344 992.963 92.9036 992.021 92.2422C991.083 91.5755 990.534 90.6693 990.372 89.5234L993.646 89.3516C993.744 89.8359 993.984 90.2057 994.364 90.4609C994.744 90.7109 995.231 90.8359 995.825 90.8359C996.409 90.8359 996.877 90.724 997.231 90.5C997.591 90.2708 997.773 89.9766 997.778 89.6172C997.773 89.3151 997.646 89.0677 997.396 88.875C997.146 88.6771 996.76 88.526 996.239 88.4219L994.161 88.0078C992.989 87.7734 992.117 87.3672 991.544 86.7891C990.976 86.2109 990.692 85.474 990.692 84.5781C990.692 83.8073 990.901 83.1432 991.317 82.5859C991.739 82.0286 992.33 81.599 993.091 81.2969C993.856 80.9948 994.752 80.8438 995.778 80.8438C997.294 80.8438 998.487 81.1641 999.356 81.8047C1000.23 82.4453 1000.74 83.3177 1000.89 84.4219ZM1013.24 84.4219L1010.19 84.6094C1010.14 84.349 1010.03 84.1146 1009.86 83.9062C1009.69 83.6927 1009.46 83.5234 1009.18 83.3984C1008.9 83.2682 1008.57 83.2031 1008.19 83.2031C1007.67 83.2031 1007.24 83.3125 1006.88 83.5312C1006.53 83.7448 1006.35 84.0312 1006.35 84.3906C1006.35 84.6771 1006.47 84.9193 1006.69 85.1172C1006.92 85.3151 1007.32 85.474 1007.87 85.5937L1010.05 86.0312C1011.21 86.2708 1012.08 86.6562 1012.66 87.1875C1013.23 87.7187 1013.51 88.4167 1013.51 89.2812C1013.51 90.0677 1013.28 90.7578 1012.82 91.3516C1012.36 91.9453 1011.73 92.4089 1010.93 92.7422C1010.13 93.0703 1009.21 93.2344 1008.17 93.2344C1006.58 93.2344 1005.32 92.9036 1004.37 92.2422C1003.44 91.5755 1002.89 90.6693 1002.73 89.5234L1006 89.3516C1006.1 89.8359 1006.34 90.2057 1006.72 90.4609C1007.1 90.7109 1007.58 90.8359 1008.18 90.8359C1008.76 90.8359 1009.23 90.724 1009.58 90.5C1009.94 90.2708 1010.13 89.9766 1010.13 89.6172C1010.13 89.3151 1010 89.0677 1009.75 88.875C1009.5 88.6771 1009.11 88.526 1008.59 88.4219L1006.51 88.0078C1005.34 87.7734 1004.47 87.3672 1003.9 86.7891C1003.33 86.2109 1003.05 85.474 1003.05 84.5781C1003.05 83.8073 1003.25 83.1432 1003.67 82.5859C1004.09 82.0286 1004.68 81.599 1005.44 81.2969C1006.21 80.9948 1007.11 80.8438 1008.13 80.8438C1009.65 80.8438 1010.84 81.1641 1011.71 81.8047C1012.58 82.4453 1013.1 83.3177 1013.24 84.4219Z" fill="#272D37"/>
</g>
<defs>
<clipPath id="clip0_1_21950">
<rect width="1440" height="236" fill="white"/>
</clipPath>
</defs>
</svg>
