<svg width="38" height="41" viewBox="0 0 38 41" fill="none" xmlns="http://www.w3.org/2000/svg">
<path d="M35.3763 6.5625C36.7825 7.1875 37.72 8.51562 37.72 10C37.72 27.3438 27.095 36.9531 20.3763 39.7656C19.4388 40.1562 18.4231 40.1562 17.4856 39.7656C9.12625 36.25 0.220001 25.5469 0.220001 10C0.220001 8.51562 1.07938 7.1875 2.48563 6.5625L17.4856 0.3125C17.9544 0.15625 18.4231 0.078125 18.97 0.078125C19.4388 0.078125 19.9075 0.15625 20.3763 0.3125L35.3763 6.5625ZM18.97 34.9219C26.2356 31.25 32.4075 22.6562 32.6419 10.8594L18.97 5.15625V34.9219Z" fill="#F45C20"/>
</svg>
