<svg width="36" height="40" viewBox="0 0 36 40" fill="none" xmlns="http://www.w3.org/2000/svg">
<path d="M17.97 20C12.4231 20 7.97 15.5469 7.97 10C7.97 4.53125 12.4231 0 17.97 0C23.4388 0 27.97 4.53125 27.97 10C27.97 15.5469 23.4388 20 17.97 20ZM25.3919 22.5781C31.0169 22.8125 35.47 27.4219 35.47 33.0469V36.25C35.47 38.3594 33.7513 40 31.72 40H4.22C2.11063 40 0.470001 38.3594 0.470001 36.25V33.0469C0.470001 27.4219 4.845 22.8125 10.47 22.5781L14.22 37.5L16.72 26.875L14.22 22.5H21.72L19.22 26.875L21.72 37.5L25.3919 22.5781Z" fill="#D5414F"/>
</svg>
