<svg width="40" height="40" viewBox="0 0 40 40" fill="none" xmlns="http://www.w3.org/2000/svg">
<path d="M19.985 0.625C30.6881 0.625 39.36 9.29688 39.36 20C39.36 30.7031 30.6881 39.375 19.985 39.375C9.28189 39.375 0.610016 30.7031 0.610016 20C0.610016 9.29688 9.28189 0.625 19.985 0.625ZM26.235 13.75C24.8288 13.75 23.735 14.9219 23.735 16.25C23.735 17.6562 24.8288 18.75 26.235 18.75C27.5631 18.75 28.735 17.6562 28.735 16.25C28.735 14.9219 27.5631 13.75 26.235 13.75ZM13.735 13.75C12.3288 13.75 11.235 14.9219 11.235 16.25C11.235 17.6562 12.3288 18.75 13.735 18.75C15.0631 18.75 16.235 17.6562 16.235 16.25C16.235 14.9219 15.0631 13.75 13.735 13.75ZM28.8913 27.1094C29.985 25.7812 28.0319 24.2188 27.0163 25.4688C25.2194 27.5781 22.7194 28.75 19.985 28.75C17.2506 28.75 14.6725 27.5781 12.8756 25.4688C11.86 24.2188 9.90689 25.7812 11.0006 27.1094C13.1881 29.7656 16.4694 31.25 19.985 31.25C23.4225 31.25 26.7038 29.7656 28.8913 27.1094Z" fill="#2F6AE1"/>
</svg>
