<svg width="61" height="61" viewBox="0 0 61 61" fill="none" xmlns="http://www.w3.org/2000/svg">
<g clip-path="url(#clip0_1_22133)">
<g clip-path="url(#clip1_1_22133)">
<g clip-path="url(#clip2_1_22133)">
<path d="M53.9732 47.7918C53.9732 37.7783 53.9732 27.7648 53.9732 17.7513C53.9732 16.6687 53.9657 16.6612 52.882 16.6612C50.8529 16.6612 48.8239 16.6612 46.9203 16.6612C46.9784 15.394 47.0345 14.1658 47.0944 12.863C47.0663 12.8667 47.2216 12.8257 47.3751 12.8257C49.3836 12.8219 51.392 12.8014 53.3986 12.8275C56.0508 12.863 57.8122 14.651 57.8122 17.2977C57.8178 28.5916 57.8141 39.8874 57.8122 51.1814C57.8122 51.3848 57.7936 51.5882 57.7804 51.8253H2.8642V51.0413C2.8642 39.8631 2.8642 28.6849 2.8642 17.5067C2.8642 14.5391 4.57875 12.8257 7.55676 12.8238C13.0429 12.8182 18.531 12.8238 24.0172 12.8238C24.2418 12.8238 24.4683 12.8238 24.8652 12.8238C23.918 14.1359 23.0832 15.3286 22.1959 16.4821C22.0725 16.6425 21.6924 16.6556 21.4305 16.6556C16.8315 16.665 12.2306 16.6612 7.63163 16.6632C6.77435 16.6632 6.70135 16.7303 6.70135 17.5664C6.70135 27.72 6.70135 37.8735 6.70135 48.027C6.70135 48.2099 6.72007 48.391 6.7313 48.6131H53.9732V47.7918Z" fill="#FFA229"/>
<path d="M31.7234 5.56339C35.7795 12.9433 39.7739 20.2132 43.815 27.567C41.539 27.7014 39.3752 27.8358 37.2114 27.9571C34.0893 28.1345 30.9672 28.2987 27.8469 28.4834C27.4894 28.504 27.2778 28.4629 27.0795 28.0953C25.4323 25.0454 23.7533 22.0144 22.0593 18.9346C25.2526 14.5168 28.4552 10.0839 31.7234 5.56152V5.56339Z" fill="#FFA229"/>
<path d="M18.1154 32.8303C17.7654 33.0188 17.4061 33.2297 17.0317 33.4108C16.2979 33.7654 15.6036 33.6105 15.2143 32.9199C14.0612 30.8743 12.9307 28.8155 11.8225 26.7438C11.4464 26.0402 11.6859 25.3682 12.3747 24.9464C12.7303 24.7299 13.1047 24.5414 13.4623 24.3435C13.2863 23.2759 13.3631 23.1247 14.3045 22.6096C16.021 21.6708 17.7337 20.7282 19.4519 19.7912C20.4159 19.2649 20.8071 19.3676 21.3219 20.3008C22.8136 23.009 24.3036 25.721 25.7861 28.4348C26.2503 29.284 26.1173 29.7338 25.2675 30.2005C23.5324 31.1543 21.7935 32.0968 20.0546 33.045C19.0926 33.5695 18.9503 33.5545 18.1136 32.8303H18.1154Z" fill="#FFA229"/>
<path d="M49.0055 27.0332C49.0073 28.1008 48.4627 28.7466 47.5474 29.0042C46.8211 29.2095 46.1024 28.9426 45.6887 28.2446C45.1664 27.3636 44.6948 26.4546 44.2006 25.5569C40.2549 18.3766 36.3074 11.1982 32.3635 4.01608C31.6821 2.77488 31.9891 1.7838 33.1964 1.26679C33.9901 0.927094 34.7986 1.1604 35.2853 1.87525C35.4033 2.04883 35.5005 2.23548 35.6017 2.41839C39.918 10.2706 44.2362 18.1228 48.5469 25.9787C48.7659 26.3781 48.9137 26.8167 49.0073 27.0332H49.0055Z" fill="#FFA229"/>
<path d="M20.5657 34.2602C21.9845 33.4837 23.3302 32.7465 24.6592 32.0186C24.7285 32.0541 24.794 32.0634 24.8052 32.0951C25.9339 35.2475 27.933 37.8382 30.1323 40.3C31.3751 41.6906 31.334 41.907 29.7074 42.7955C28.8689 43.2528 28.0303 43.712 27.1898 44.1655C26.6264 44.4697 26.1417 44.3932 25.8216 43.8146C24.0789 40.6603 22.3438 37.4985 20.5637 34.2602H20.5657Z" fill="#FFA229"/>
<path d="M44.9831 16.7905C43.8637 14.7486 42.7743 12.7627 41.6719 10.7526C43.1131 10.5304 44.6405 11.3628 45.3612 12.7048C46.0687 14.0226 45.9283 15.7211 44.9812 16.7905H44.9831Z" fill="#FFA229"/>
<path d="M59.8843 53.1692H1.09162C0.608696 55.254 1.62507 57.7103 3.50809 59.0541C3.67654 59.1755 3.9517 59.2838 3.98352 59.4368C4.14636 60.217 4.71913 60.146 5.28815 60.146C14.2034 60.146 22.355 60.1442 30.4879 60.1442C38.6208 60.1442 46.7744 60.1442 55.6877 60.146C56.2586 60.146 56.8296 60.217 56.9924 59.4368C57.0242 59.2818 57.2993 59.1755 57.4678 59.0541C59.349 57.7103 60.3672 55.254 59.8843 53.1692Z" fill="#FFA229"/>
</g>
</g>
</g>
<defs>
<clipPath id="clip0_1_22133">
<rect width="60" height="60" fill="white" transform="translate(0.810059 0.629883)"/>
</clipPath>
<clipPath id="clip1_1_22133">
<rect width="60" height="60" fill="white" transform="translate(0.810059 0.629883)"/>
</clipPath>
<clipPath id="clip2_1_22133">
<rect width="60" height="60" fill="white" transform="translate(0.810059 0.629883)"/>
</clipPath>
</defs>
</svg>
