<svg width="61" height="61" viewBox="0 0 61 61" fill="none" xmlns="http://www.w3.org/2000/svg">
<g clip-path="url(#clip0_1_22053)">
<g clip-path="url(#clip1_1_22053)">
<g clip-path="url(#clip2_1_22053)">
<path d="M31.8929 41.355C32.0246 41.5009 32.0921 41.5833 32.1664 41.6589C33.9541 43.4769 35.747 45.2898 37.5229 47.1199C37.7643 47.3688 37.9737 47.6796 38.1104 47.9989C38.3416 48.5448 38.1053 49.0238 37.5415 49.1818C37.2072 49.2762 36.8476 49.3208 36.4999 49.3225C30.7618 49.3311 25.0255 49.3311 19.2875 49.3208C18.9313 49.3208 18.5566 49.2538 18.224 49.1268C17.7192 48.9345 17.5403 48.4693 17.7783 47.9766C17.9404 47.6401 18.1649 47.3156 18.4231 47.0478C20.1569 45.2623 21.9058 43.4923 23.6547 41.7223C23.7459 41.6297 23.8827 41.585 23.9991 41.518C23.9653 41.4717 23.9316 41.4253 23.8978 41.379C23.8201 41.3721 23.7425 41.3619 23.6648 41.3619C16.6371 41.3601 9.60764 41.3567 2.57985 41.3584C1.30193 41.3584 0.483169 40.5429 0.481481 39.2347C0.478105 37.257 0.481481 35.2793 0.481481 33.3016C0.481481 24.067 0.481481 14.8342 0.481481 5.59967C0.478105 4.24171 1.27154 3.43654 2.60855 3.43654C9.35272 3.43654 16.0952 3.43654 22.8394 3.43654C29.8232 3.43482 36.8088 3.43311 43.7944 3.43311C46.9478 3.43311 50.1013 3.43482 53.2548 3.43654C54.6104 3.43654 55.4139 4.24858 55.4139 5.61684C55.4139 12.3792 55.4139 19.1399 55.4123 25.9022C55.4123 26.134 55.4359 26.3023 55.6587 26.4585C58.9759 28.8036 60.659 32.0294 60.4649 36.1446C60.291 39.8184 58.5775 42.6683 55.5929 44.7267C55.3937 44.8641 55.3497 44.9722 55.4156 45.1988C56.2631 48.1104 57.0936 51.0272 57.9496 53.9372C58.3142 55.175 58.2095 56.2806 57.2287 57.1974C55.7921 58.5382 53.3831 57.8909 52.8108 55.9905C52.2081 53.9836 51.6392 51.9664 51.0585 49.9526C50.7546 48.8985 50.4491 47.8444 50.1571 46.7868C50.0963 46.5671 50.0152 46.4761 49.7671 46.4709C45.9603 46.3885 42.9841 44.7319 40.8114 41.5592C40.7472 41.4648 40.6088 41.3653 40.5042 41.3635C37.6647 41.3533 34.8236 41.355 31.8912 41.355H31.8929ZM39.179 37.3738C38.7147 33.6844 39.6382 30.4877 42.189 27.88C44.7398 25.2722 47.8764 24.3142 51.4603 24.7709V7.49328H4.41488V37.3755H39.179V37.3738ZM57.0616 35.5557C57.0582 31.468 53.7106 27.9761 49.4446 28.1616C45.5889 28.3281 42.5435 31.5624 42.4928 35.4853C42.4388 39.5781 45.7088 42.9722 49.7603 42.9808C53.8034 42.9894 57.0987 39.6141 57.0616 35.5557Z" fill="#FFA229"/>
<path d="M21.0629 22.0718C21.0629 19.2546 21.0629 16.4374 21.0629 13.6201C21.0629 12.6021 21.7719 11.8364 22.7139 11.8381C23.6728 11.8381 24.4105 12.5815 24.4122 13.5893C24.419 19.2117 24.4207 24.8341 24.4122 30.4566C24.4105 31.7613 23.3976 32.5733 22.2429 32.2351C21.5306 32.0274 21.0663 31.3853 21.0646 30.5974C21.0629 27.7561 21.0646 24.9131 21.0646 22.0718H21.0629Z" fill="#FFA229"/>
<path d="M33.3541 23.811C33.3541 26.0566 33.3524 28.3038 33.3541 30.5494C33.3541 31.3099 33.0147 31.8644 32.3462 32.1683C31.7014 32.4619 31.0801 32.3452 30.5467 31.8696C30.1145 31.4833 29.9845 30.9683 29.9845 30.3983C29.9879 26.4171 29.9879 22.4376 29.9879 18.4564C29.9879 17.986 29.9828 17.5173 29.9879 17.047C29.998 16.0341 30.7189 15.2598 31.649 15.2564C32.6248 15.2529 33.3473 15.998 33.3507 17.035C33.3558 19.2942 33.3524 21.5518 33.3524 23.811H33.3541Z" fill="#FFA229"/>
<path d="M28.8755 25.531C28.8755 27.2357 28.884 28.9405 28.8722 30.6452C28.8671 31.4693 28.3066 32.1165 27.5031 32.2796C26.7552 32.4324 25.9955 32.0461 25.685 31.3114C25.582 31.0693 25.5279 30.7877 25.5279 30.5233C25.5178 27.1619 25.5195 23.8005 25.5246 20.4407C25.5246 19.4175 26.2353 18.6724 27.1891 18.6656C28.1564 18.6587 28.8806 19.4158 28.884 20.451C28.8874 22.1438 28.884 23.8365 28.884 25.5293H28.8755V25.531Z" fill="#FFA229"/>
<path d="M16.5709 25.4881C16.5709 23.8091 16.5658 22.1318 16.5726 20.4528C16.5777 19.421 17.2749 18.6794 18.2321 18.6674C19.1926 18.6554 19.9236 19.3747 19.9269 20.4082C19.9404 23.8194 19.9404 27.2306 19.9269 30.6419C19.9236 31.593 19.1386 32.3398 18.2321 32.3157C17.2968 32.2917 16.5878 31.5604 16.5845 30.5973C16.5793 28.8942 16.5845 27.1894 16.5845 25.4864C16.5811 25.4864 16.5777 25.4864 16.5726 25.4864L16.5709 25.4881Z" fill="#FFA229"/>
<path d="M12.1059 27.0022C12.1059 25.84 12.1025 24.6795 12.1059 23.5172C12.1092 22.5094 12.8369 21.7317 13.7653 21.73C14.7208 21.73 15.4602 22.506 15.462 23.5275C15.4653 25.8623 15.4653 28.1988 15.462 30.5336C15.4602 31.5551 14.7141 32.3276 13.7552 32.3156C12.8082 32.3036 12.1092 31.5465 12.1059 30.5233C12.1025 29.349 12.1059 28.1748 12.1059 27.0005V27.0022Z" fill="#FFA229"/>
<path d="M37.8748 28.9331C37.8748 29.5374 37.9018 30.1434 37.868 30.7477C37.819 31.6232 37.1252 32.2825 36.2693 32.3169C35.4286 32.3512 34.6065 31.7297 34.5643 30.8713C34.4984 29.5546 34.5069 28.2292 34.5693 26.9125C34.6065 26.1021 35.3627 25.5115 36.1832 25.4978C37.0104 25.4841 37.7582 26.0661 37.8444 26.9021C37.9135 27.5734 37.8579 28.2567 37.8579 28.9348C37.8629 28.9348 37.868 28.9348 37.8748 28.9348V28.9331Z" fill="#FFA229"/>
<path d="M55.3789 35.2344C55.3975 36.5427 55.1307 37.5177 54.6243 38.426C54.3592 38.9032 53.9963 39.0302 53.6063 38.8019C53.2518 38.5942 53.1657 38.1787 53.4273 37.7358C54.3491 36.1666 54.155 34.1357 53.0036 32.8018C52.6576 32.4018 52.2068 32.0859 51.7713 31.7803C51.3898 31.5125 51.2311 31.152 51.4269 30.788C51.6228 30.4241 52.0245 30.3142 52.4347 30.5494C54.3254 31.6344 55.2793 33.3031 55.3789 35.2344Z" fill="#FFA229"/>
</g>
</g>
</g>
<defs>
<clipPath id="clip0_1_22053">
<rect width="60" height="60" fill="white" transform="translate(0.47998 0.670166)"/>
</clipPath>
<clipPath id="clip1_1_22053">
<rect width="60" height="60" fill="white" transform="translate(0.47998 0.670166)"/>
</clipPath>
<clipPath id="clip2_1_22053">
<rect width="60" height="55.2632" fill="white" transform="translate(0.47998 3.03833)"/>
</clipPath>
</defs>
</svg>
