<svg width="61" height="61" viewBox="0 0 61 61" fill="none" xmlns="http://www.w3.org/2000/svg">
<g clip-path="url(#clip0_1_22071)">
<g clip-path="url(#clip1_1_22071)">
<g clip-path="url(#clip2_1_22071)">
<path d="M30.3716 23.349C29.6732 21.2856 28.9369 19.2329 28.2981 17.1509C28.0274 16.273 27.5889 15.9946 26.6442 15.9999C19.6034 16.0397 12.56 16.0264 5.51919 16.0131C2.40892 16.0078 1.22328 14.817 1.22599 11.7644C1.22599 9.70364 1.2314 7.64027 1.23952 5.57955C1.24494 2.98309 2.51991 1.69945 5.18624 1.68884C10.7192 1.66762 16.2522 1.67027 21.7852 1.67027C32.9865 1.67027 44.1905 1.67823 55.3918 1.68088C58.7078 1.68088 59.8366 2.78153 59.8393 6.02246C59.842 8.03809 59.8529 10.0564 59.8501 12.072C59.8501 14.7401 58.5589 16.0052 55.8033 16.0078C48.8086 16.0158 41.8111 16.0476 34.8164 15.9813C33.582 15.9707 33.0352 16.3526 32.6996 17.4718C32.1068 19.4424 31.3759 21.3758 30.7046 23.3251C30.5936 23.3331 30.4826 23.341 30.3716 23.349Z" fill="#FFA229"/>
<path d="M47.8503 59.6702H13.1663C13.3558 56.1747 12.5383 52.6606 14.1165 49.3427C15.9734 45.4388 19.1216 43.1659 23.5366 43.012C28.1952 42.8503 32.8647 42.8635 37.5233 42.9988C43.0428 43.1606 47.4822 47.4464 47.8259 52.833C47.9667 55.0555 47.8503 57.2965 47.8503 59.6702Z" fill="#FFA229"/>
<path d="M0.976959 49.4567C1.11231 46.9079 0.947183 44.4574 1.43172 42.1367C2.26276 38.1426 5.87381 35.4215 10.0425 35.326C13.5588 35.2464 17.0806 35.2889 20.5996 35.3207C20.9758 35.3233 21.5714 35.5408 21.6905 35.8166C22.6758 38.0789 24.2783 39.7684 26.4276 41.2085C25.4531 41.2085 24.4732 41.1395 23.5068 41.2191C18.5044 41.6408 14.8284 44.041 12.6168 48.4727C12.2351 49.2392 11.8047 49.4858 10.9602 49.4752C7.72806 49.4275 4.49327 49.4567 0.979666 49.4567H0.976959Z" fill="#FFA229"/>
<path d="M34.6674 41.1849C36.768 39.7899 38.3407 38.127 39.3315 35.9124C39.4641 35.618 40.0082 35.329 40.3628 35.3263C43.9739 35.2892 47.5876 35.2043 51.1933 35.3449C56.1118 35.5358 59.8176 39.339 59.9529 44.15C60.0016 45.8474 59.961 47.5474 59.961 49.4464C58.4424 49.4464 56.9996 49.4464 55.5568 49.4464C53.6836 49.449 51.8077 49.5074 49.9372 49.4251C49.4744 49.4039 48.8139 49.0485 48.6163 48.664C45.9987 43.5851 41.7867 41.1451 36.0209 41.1876C35.5688 41.1902 35.1168 41.1876 34.6674 41.1876V41.1849Z" fill="#FFA229"/>
<path d="M30.5528 40.0684C26.3543 40.0792 22.9138 36.7533 22.8921 32.6743C22.8732 28.4812 26.265 25.1051 30.5149 25.0892C34.7539 25.0759 38.189 28.4601 38.1728 32.6372C38.1566 36.7428 34.7539 40.0606 30.5555 40.0712L30.5528 40.0684Z" fill="#FFA229"/>
<path d="M38.9878 26.5527C39.0149 23.0147 41.8626 20.2856 45.4709 20.3386C49.0197 20.3916 51.7862 23.134 51.7916 26.6056C51.797 30.1304 48.9574 32.8939 45.3491 32.8753C41.7137 32.8568 38.9607 30.1198 38.9878 26.5553V26.5527Z" fill="#FFA229"/>
<path d="M22.0721 26.7304C22.0234 30.271 19.1811 32.9364 15.5322 32.8701C11.9861 32.8038 9.24664 30.035 9.28454 26.5553C9.32244 23.0121 12.1702 20.2857 15.7785 20.3387C19.4031 20.3891 22.1236 23.1526 22.0721 26.733V26.7304Z" fill="#FFA229"/>
<path d="M8.91641 4.13672L10.2888 6.86313L13.3585 7.30073L11.1361 9.42245L11.6613 12.4167L8.91641 11.0031L6.16887 12.4167L6.69401 9.42245L4.47162 7.30073L7.54128 6.86313L8.91641 4.13672Z" fill="white"/>
<path d="M19.9553 4.13672L21.3277 6.86313L24.3974 7.30073L22.1777 9.42245L22.7002 12.4167L19.9553 11.0031L17.2105 12.4167L17.7329 9.42245L15.5132 7.30073L18.5829 6.86313L19.9553 4.13672Z" fill="white"/>
<path d="M30.9942 4.13672L32.3693 6.86313L35.439 7.30073L33.2166 9.42245L33.7418 12.4167L30.9942 11.0031L28.2494 12.4167L28.7745 9.42245L26.5521 7.30073L29.6218 6.86313L30.9942 4.13672Z" fill="white"/>
<path d="M42.0358 4.13672L43.4082 6.86313L46.4779 7.30073L44.2582 9.42245L44.7806 12.4167L42.0358 11.0031L39.291 12.4167L39.8134 9.42245L37.5937 7.30073L40.6634 6.86313L42.0358 4.13672Z" fill="white"/>
<path d="M53.0747 4.13672L54.4498 6.86313L57.5195 7.30073L55.2971 9.42245L55.8222 12.4167L53.0747 11.0031L50.3299 12.4167L50.855 9.42245L48.6326 7.30073L51.7023 6.86313L53.0747 4.13672Z" fill="white"/>
</g>
</g>
</g>
<defs>
<clipPath id="clip0_1_22071">
<rect width="60" height="60" fill="white" transform="translate(0.809967 0.670166)"/>
</clipPath>
<clipPath id="clip1_1_22071">
<rect width="60" height="60" fill="white" transform="translate(0.809967 0.670166)"/>
</clipPath>
<clipPath id="clip2_1_22071">
<rect width="60" height="58" fill="white" transform="translate(0.809967 1.67017)"/>
</clipPath>
</defs>
</svg>
