<svg width="61" height="61" viewBox="0 0 61 61" fill="none" xmlns="http://www.w3.org/2000/svg">
<g clip-path="url(#clip0_1_22092)">
<g clip-path="url(#clip1_1_22092)">
<g clip-path="url(#clip2_1_22092)">
<path d="M13.8193 52.7868C13.8193 48.8987 13.805 45.3869 13.8422 41.8723C13.8452 41.5838 14.123 41.1791 14.3893 41.032C17.5204 39.2916 20.6743 37.588 24.0832 35.7346C24.0832 37.8484 24.0832 39.7359 24.0832 41.6261C24.0832 42.9873 24.0372 44.3513 24.0974 45.7096C24.1404 46.683 23.7566 47.28 22.8943 47.7272C21.3532 48.5223 19.8492 49.3939 18.1276 50.3419C22.2212 52.5831 26.097 54.7223 29.9985 56.8136C30.2907 56.9692 30.835 56.9098 31.1472 56.7428C34.9772 54.6827 38.7842 52.5831 42.8719 50.3419C41.2392 49.442 39.8183 48.5818 38.3287 47.8601C37.2373 47.331 36.8592 46.6009 36.8878 45.4096C36.9652 42.2827 36.9136 39.153 36.9136 35.7827C40.3311 37.6277 43.5623 39.3652 46.7793 41.1281C46.974 41.2357 47.1602 41.5611 47.1602 41.7875C47.1832 45.336 47.1773 48.8845 47.1773 52.7839C45.7365 51.3097 44.668 52.235 43.5794 52.832C39.7209 54.9431 35.8479 57.023 32.0352 59.2132C30.8922 59.8698 30.0186 59.8075 28.9128 59.1793C25.0084 56.9607 21.0438 54.8497 17.1222 52.6566C16.0938 52.0821 15.1342 51.553 13.8136 52.7868H13.8193Z" fill="#FFA229"/>
<path d="M18.9527 15.6464C15.5324 17.5168 12.3814 19.2317 9.25038 20.9833C8.98397 21.1333 8.71757 21.5465 8.71183 21.8435C8.67173 24.5064 8.68892 27.1692 8.68892 30.0584C9.71443 29.5009 10.5337 28.9349 11.4418 28.6067C12.0433 28.3888 12.9027 28.2558 13.4183 28.5218C16.4748 30.0951 19.4626 31.7986 22.6766 33.5673C19.3108 35.3897 16.1225 37.1244 12.9199 38.8306C12.7137 38.941 12.347 38.9354 12.1379 38.825C8.92095 37.1442 5.71835 35.4378 2.34387 33.6465C2.85377 33.3267 3.16601 33.0353 3.53267 32.9193C5.71835 32.2345 6.39152 30.8139 6.17095 28.5841C5.94464 26.3061 6.21105 23.9828 6.08788 21.6907C6.01053 20.2532 6.56626 19.4892 7.81808 18.8411C11.0092 17.1914 14.1002 15.3492 17.297 13.7107C18.5431 13.0712 19.2392 12.3609 18.9699 10.9206C18.8783 10.4282 18.9556 9.90756 18.9556 9.16333C22.3616 11.0026 25.5957 12.7373 28.8098 14.5087C29.0303 14.6305 29.2022 15.038 29.2022 15.3125C29.228 18.8242 29.2194 22.3359 29.2194 26.0599C25.9337 24.2602 22.7798 22.5736 19.6889 20.7852C19.2822 20.5504 19.0386 19.7948 18.9871 19.2571C18.8811 18.1479 18.9556 17.0216 18.9556 15.652L18.9527 15.6464Z" fill="#FFA229"/>
<path d="M52.3193 30.0891C52.3193 27.231 52.3365 24.6531 52.2992 22.0752C52.2935 21.7157 52.1073 21.1866 51.8351 21.0338C48.6755 19.2511 45.4815 17.5249 42.0527 15.6516C42.0527 17.0098 42.1443 18.1644 42.0126 19.2935C41.9467 19.8595 41.6144 20.615 41.1588 20.8781C38.1425 22.627 35.063 24.2682 31.7888 26.0623C31.7888 22.3044 31.7803 18.7218 31.806 15.1422C31.806 14.9187 32.018 14.5989 32.2243 14.4885C35.4097 12.7652 38.6123 11.0674 41.7948 9.37231C41.9237 9.54775 42.0268 9.62699 42.0154 9.68358C41.5169 12.171 42.7946 13.4104 44.9688 14.4206C47.9222 15.7902 50.695 17.5391 53.574 19.0671C54.525 19.5708 54.9289 20.2047 54.906 21.2913C54.8429 24.1975 54.9489 27.1094 54.8516 30.0156C54.8144 31.17 55.1868 31.8266 56.2266 32.268C56.9599 32.5793 57.6302 33.0377 58.4667 33.5075C58.1201 33.7536 57.8594 33.9772 57.5644 34.1385C54.8258 35.627 52.0872 37.1211 49.3258 38.5727C48.9563 38.768 48.3605 38.9519 48.0539 38.7935C44.8342 37.1239 41.6516 35.3836 38.28 33.5669C41.5342 31.7841 44.5677 30.0721 47.6615 28.479C48.137 28.2328 48.9534 28.3742 49.5091 28.5893C50.4144 28.9402 51.2393 29.5005 52.3135 30.0919L52.3193 30.0891Z" fill="#FFA229"/>
<path d="M60.0194 35.7463C60.0194 39.3882 60.048 42.7188 59.985 46.0466C59.9764 46.5221 59.6441 47.2041 59.2517 47.4304C56.1923 49.1877 53.0813 50.8573 49.7556 52.6797C49.7556 48.8934 49.7441 45.3534 49.7756 41.8105C49.7756 41.5559 50.022 41.1964 50.254 41.0691C53.4251 39.3175 56.6134 37.5941 60.0165 35.7463H60.0194Z" fill="#FFA229"/>
<path d="M11.2498 52.6845C7.93547 50.865 4.86464 49.2209 1.85396 47.4834C1.42428 47.2344 1.03469 46.5298 1.02323 46.026C0.948755 42.7096 0.985995 39.3931 0.985995 35.8616C4.36333 37.6584 7.59745 39.3677 10.8115 41.1136C11.035 41.2353 11.2297 41.6201 11.2326 41.8861C11.2612 45.3894 11.2498 48.8955 11.2498 52.6845Z" fill="#FFA229"/>
<path d="M20.3191 6.95007C23.6392 5.12769 26.8045 3.37041 30.0013 1.66971C30.2993 1.51125 30.8636 1.58482 31.1873 1.75744C34.3383 3.45247 37.4636 5.19278 40.7206 6.98686C37.4264 8.74414 34.2839 10.4448 31.1099 12.0861C30.7748 12.2587 30.179 12.2247 29.8323 12.0437C26.7071 10.4109 23.6105 8.7215 20.3191 6.95007Z" fill="#FFA229"/>
</g>
</g>
</g>
<defs>
<clipPath id="clip0_1_22092">
<rect width="60" height="60" fill="white" transform="translate(0.660004 0.629883)"/>
</clipPath>
<clipPath id="clip1_1_22092">
<rect width="60" height="60" fill="white" transform="translate(0.660004 0.629883)"/>
</clipPath>
<clipPath id="clip2_1_22092">
<rect width="60" height="59.0476" fill="white" transform="translate(0.660004 1.10645)"/>
</clipPath>
</defs>
</svg>
