<svg width="61" height="61" viewBox="0 0 61 61" fill="none" xmlns="http://www.w3.org/2000/svg">
<g clip-path="url(#clip0_1_22039)">
<g clip-path="url(#clip1_1_22039)">
<g clip-path="url(#clip2_1_22039)">
<path d="M9.38393 28.5549V51.7835H51.6598V28.5549C51.0004 28.5549 50.3462 28.5619 49.6939 28.5549C48.4104 28.5373 47.4671 27.6292 47.4742 26.4269C47.4812 25.2227 48.4192 24.3358 49.7168 24.3252C50.951 24.3164 52.1852 24.3218 53.4211 24.3235C55.1313 24.3235 55.9388 25.1221 55.9388 26.8165C55.9388 34.8615 55.9388 42.9047 55.9388 50.9496V51.8329C56.5982 51.8329 57.2276 51.8294 57.8571 51.8329C59.3452 51.8417 60.2232 52.7691 60.1633 54.2642C60.0345 57.4624 57.367 60.137 54.1581 60.2869C54.0259 60.2939 53.8936 60.2975 53.7614 60.2975C38.2866 60.2975 22.81 60.3027 7.33518 60.2939C4.32907 60.2939 1.85367 58.3687 1.11316 55.5213C1.05145 55.2868 1.0109 55.0487 0.970348 54.8107C0.651225 52.8995 1.54336 51.8364 3.46162 51.8347C3.98879 51.8347 4.51596 51.8347 5.13658 51.8347V51.0395C5.13658 42.9734 5.13658 34.9073 5.13658 26.8412C5.13658 25.1169 5.92116 24.327 7.62785 24.3252C8.86201 24.3252 10.0962 24.32 11.3322 24.3252C12.6633 24.3341 13.6171 25.2421 13.6013 26.4692C13.5854 27.6681 12.6422 28.5408 11.3392 28.5549C10.7045 28.5619 10.0715 28.5549 9.38564 28.5549H9.38393Z" fill="#FFA229"/>
<path d="M20.22 4.76588C20.5867 4.94748 21.1844 5.21194 21.7468 5.53458C22.0765 5.72323 22.3463 5.77083 22.6319 5.49932C22.6478 5.48345 22.6654 5.46935 22.6848 5.46053C23.792 5.01799 24.3827 4.36037 24.2699 3.00985C24.1747 1.85502 25.2025 1.05458 26.4032 1.0493C29.159 1.03695 31.9129 1.03695 34.6687 1.0493C35.9082 1.05458 36.8849 1.91497 36.8232 3.14913C36.7685 4.24048 37.1071 4.84522 38.0944 5.3283C38.7344 5.64213 39.1399 5.6721 39.7359 5.30009C41.2328 4.36742 42.3241 4.67772 43.1968 6.19926C44.4786 8.43309 45.7586 10.6687 47.0333 12.906C47.8197 14.2866 47.5553 15.4643 46.1694 16.1854C45.4184 16.5768 45.2085 17.0263 45.1891 17.8603C45.1662 18.8371 45.406 19.4012 46.3122 19.8579C47.5341 20.4732 47.7915 21.6914 47.1074 22.9009C45.7728 25.2564 44.4293 27.6066 43.0752 29.9533C42.3664 31.1822 41.1745 31.5454 39.9897 30.789C39.2122 30.2918 38.6462 30.2654 37.8229 30.7714C37.0824 31.2263 36.802 31.6546 36.8373 32.5115C36.9008 34.0736 36.0086 34.9023 34.4307 34.904C31.8301 34.9076 29.2295 34.9076 26.6271 34.904C25.0615 34.9023 24.1641 34.0613 24.2346 32.4974C24.2751 31.63 24.06 31.0693 23.212 30.8031C23.0692 30.759 22.9299 30.6674 22.8171 30.5651C22.3904 30.1807 21.9778 30.179 21.5371 30.5439C21.3872 30.6691 21.2003 30.7502 21.0257 30.8454C19.8797 31.4607 18.7125 31.1751 18.0602 30.0555C16.6532 27.6401 15.2621 25.2141 13.8922 22.7775C13.2804 21.6897 13.5889 20.4432 14.7068 19.8878C15.6218 19.433 15.9233 18.8723 15.881 17.8515C15.8475 17.0211 15.6394 16.5627 14.8936 16.1766C13.5343 15.4731 13.2504 14.29 14.0085 12.9572C15.3256 10.6423 16.6585 8.33612 17.972 6.01943C18.4111 5.24543 19.0475 4.81877 20.2165 4.76588H20.22ZM40.3935 26.1203C41.0934 24.8968 41.7722 23.7067 42.4599 22.5043C42.3065 22.4037 42.2201 22.335 42.1231 22.2857C41.0688 21.7409 40.739 20.8911 40.8325 19.7151C40.9313 18.4738 40.8766 17.2168 40.8149 15.9703C40.7673 15.0129 41.0846 14.2989 41.8956 13.7982C42.0791 13.6853 42.2606 13.5689 42.4633 13.4437C41.7616 12.222 41.0864 11.0425 40.4041 9.85589C40.2736 9.90352 40.1837 9.91759 40.1131 9.96345C38.9901 10.7022 38.001 10.51 36.9801 9.67782C36.289 9.11537 35.5008 8.59885 34.6705 8.29734C33.267 7.7878 32.4736 6.97149 32.6023 5.41998C32.6059 5.38825 32.5547 5.35122 32.5424 5.33359H28.4185C28.6582 6.9662 27.8243 7.77194 26.4332 8.285C25.6627 8.57063 24.8958 9.00078 24.2769 9.53678C23.1626 10.5047 22.0659 10.741 20.8071 9.89648C20.7789 9.87885 20.7242 9.89997 20.6361 9.90878C19.9749 11.0636 19.3014 12.2396 18.6156 13.4403C18.8589 13.5954 19.0599 13.7241 19.2608 13.8546C19.9925 14.3306 20.2852 15.0023 20.2641 15.8733C20.2323 17.2749 20.2323 18.6783 20.2641 20.08C20.2835 20.951 19.9891 21.6227 19.2573 22.097C19.0563 22.2274 18.8553 22.3562 18.6138 22.5113C19.3102 23.7243 19.9925 24.9126 20.6854 26.1203C20.9711 25.9705 21.1809 25.8559 21.396 25.7501C22.1805 25.364 22.9052 25.4751 23.6422 25.9317C24.7953 26.6475 25.9659 27.3369 27.1596 27.9822C27.9512 28.4089 28.4079 28.9994 28.4396 29.9022C28.4485 30.1384 28.4608 30.3747 28.4731 30.6268H32.627C32.627 30.3659 32.6235 30.149 32.627 29.9321C32.6482 28.9994 33.1225 28.4 33.9388 27.9646C35.1165 27.3351 36.2678 26.6563 37.3997 25.9476C38.1579 25.4715 38.9002 25.3605 39.7059 25.7642C39.9192 25.8717 40.1308 25.9829 40.3899 26.1186L40.3935 26.1203Z" fill="#FFA229"/>
<path d="M25.0086 43.3687C25.9818 44.3242 26.9145 45.1934 27.7925 46.1138C28.9633 47.3391 28.4008 49.275 26.7823 49.6576C26.0418 49.8321 25.3718 49.647 24.8323 49.1145C23.4041 47.7059 21.9796 46.2936 20.5778 44.8585C19.7263 43.9857 19.721 42.7604 20.569 41.8912C21.969 40.456 23.3883 39.0368 24.8235 37.6369C25.6874 36.7941 26.9709 36.8223 27.7943 37.6474C28.6177 38.469 28.6406 39.7455 27.7978 40.6182C26.9127 41.535 25.9853 42.4078 25.005 43.3704L25.0086 43.3687Z" fill="#FFA229"/>
<path d="M36.0423 43.3602C35.1184 42.4504 34.265 41.62 33.4259 40.7772C32.4632 39.8111 32.4015 38.5417 33.2619 37.6619C34.1399 36.7645 35.4322 36.8174 36.4267 37.8029C37.7402 39.1076 39.0519 40.4158 40.3548 41.7293C41.3827 42.766 41.3933 43.9578 40.3742 44.9874C39.0413 46.3362 37.7013 47.6762 36.3508 49.0073C35.4216 49.9241 34.1364 49.9505 33.2813 49.0972C32.4244 48.2421 32.4473 46.9551 33.3588 46.0294C34.221 45.1514 35.1025 44.2928 36.0423 43.3584V43.3602Z" fill="#FFA229"/>
<path d="M30.5113 11.6277C34.0075 11.6171 36.8725 14.4592 36.8849 17.9484C36.8955 21.4428 34.0533 24.3096 30.5642 24.3219C27.0732 24.3342 24.2011 21.4868 24.1888 18.0013C24.1782 14.5086 27.0239 11.64 30.5113 11.6295V11.6277ZM32.6516 17.9977C32.664 16.8482 31.7243 15.882 30.5765 15.8608C29.4287 15.8397 28.4502 16.7742 28.4219 17.9184C28.392 19.0926 29.3582 20.0852 30.5307 20.0888C31.6785 20.0922 32.6393 19.1455 32.6516 17.9977Z" fill="#FFA229"/>
</g>
</g>
</g>
<defs>
<clipPath id="clip0_1_22039">
<rect width="60" height="60" fill="white" transform="translate(0.660004 0.669922)"/>
</clipPath>
<clipPath id="clip1_1_22039">
<rect width="60" height="60" fill="white" transform="translate(0.660004 0.669922)"/>
</clipPath>
<clipPath id="clip2_1_22039">
<rect width="60" height="59.2593" fill="white" transform="translate(0.660004 1.04004)"/>
</clipPath>
</defs>
</svg>
