<svg width="61" height="61" viewBox="0 0 61 61" fill="none" xmlns="http://www.w3.org/2000/svg">
<g clip-path="url(#clip0_1_22107)">
<g clip-path="url(#clip1_1_22107)">
<g clip-path="url(#clip2_1_22107)">
<path d="M6.96566 32.6968C12.7764 35.2727 18.4542 35.2134 23.8773 31.9602C29.2812 28.7183 32.0125 23.7872 32.4418 17.488C32.6368 17.488 32.8362 17.488 33.0356 17.488C36.4869 17.488 39.9382 17.488 43.3906 17.488C44.452 17.488 44.8238 17.9258 44.6233 18.9612C43.3354 25.6376 42.0453 32.3129 40.7562 38.9882C40.718 39.1897 40.6875 39.3923 40.6401 39.5916C40.4937 40.2196 40.1917 40.468 39.5337 40.4737C38.5399 40.4827 37.545 40.4759 36.5511 40.4759C28.0531 40.4759 19.5561 40.4759 11.0581 40.4759C9.96176 40.4759 9.82201 40.3785 9.4513 39.3834C8.6851 37.3224 7.91664 35.2627 7.14932 33.2029C7.09298 33.0529 7.04002 32.9018 6.96566 32.6968Z" fill="#FFA229"/>
<path d="M51.4989 15.1974C51.3523 16.0638 51.2138 16.8631 51.0808 17.6647C49.8234 25.2914 48.5648 32.9194 47.3096 40.5462C47.2194 41.0958 47.2047 41.6645 47.0583 42.1985C46.4284 44.4923 44.371 45.99 41.8976 45.99C31.9742 45.9912 22.052 45.99 12.1286 45.99C11.866 45.99 11.6023 45.9811 11.341 45.9957C10.3584 46.0516 9.74881 46.6763 9.7274 47.648C9.71952 48.0208 9.7398 48.3946 9.71952 48.7663C9.67895 49.513 9.16177 50.0089 8.46317 49.9944C7.7612 49.9798 7.28683 49.476 7.2857 48.7059C7.28458 48.0924 7.24401 47.4655 7.34655 46.8666C7.67331 44.9602 9.25529 43.6538 11.2609 43.5698C11.5415 43.5586 11.8232 43.5665 12.1048 43.5665C21.8965 43.5665 31.6881 43.5665 41.4796 43.5665C43.6014 43.5665 44.4994 42.7728 44.834 40.7063C45.607 35.9251 46.4093 31.1495 47.1991 26.3717C47.7703 22.9171 48.3789 19.4681 48.8949 16.0045C49.056 14.9276 49.2487 13.9201 49.9946 13.0805C50.0656 12.9999 50.034 12.7738 49.9788 12.6462C49.5676 11.7047 49.7704 11.033 50.6594 10.5203C52.54 9.43558 54.4228 8.35531 56.3101 7.28064C57.3028 6.71532 58.0588 6.91906 58.6279 7.88738C59.0053 8.53106 59.384 9.17475 59.7502 9.82403C60.2459 10.7039 60.0307 11.4965 59.1474 12.007C57.3321 13.0558 55.5011 14.0768 53.6995 15.147C52.9795 15.5746 52.2966 15.7425 51.4955 15.1951L51.4989 15.1974Z" fill="#FFA229"/>
<path d="M22.6164 52.8973C22.6254 55.6254 20.4463 57.8105 17.7127 57.815C14.9702 57.8195 12.7764 55.6556 12.7639 52.9342C12.7516 50.2196 14.9544 48.0098 17.6745 48.0076C20.4124 48.0053 22.6074 50.1759 22.6164 52.8962V52.8973ZM17.7139 55.3848C19.0671 55.3758 20.1724 54.2719 20.1781 52.9242C20.1837 51.5618 19.0468 50.4367 17.6721 50.4446C16.3257 50.4524 15.2034 51.573 15.2034 52.9085C15.2034 54.2776 16.3358 55.3937 17.7139 55.3848Z" fill="#FFA229"/>
<path d="M36.764 57.8174C34.0396 57.8129 31.8289 55.6043 31.8435 52.9008C31.8582 50.1917 34.0813 47.9976 36.799 48.0088C39.5213 48.02 41.7207 50.2231 41.7196 52.9344C41.7184 55.6378 39.5021 57.8219 36.764 57.8174ZM39.2655 52.9097C39.261 51.5407 38.1241 50.4291 36.7449 50.4459C35.3974 50.4626 34.292 51.581 34.2942 52.9266C34.2965 54.2688 35.4086 55.3793 36.7618 55.3871C38.1444 55.3961 39.27 54.2822 39.2655 52.9097Z" fill="#FFA229"/>
<path d="M0.95459 16.3623C1.32079 12.6726 2.8746 9.6188 5.58672 7.05078C6.63124 8.29897 7.9518 9.12176 9.32871 9.72962C9.06279 11.9607 8.80364 14.1357 8.53772 16.3623H0.95459Z" fill="#FFA229"/>
<path d="M9.27327 25.371C7.99214 26.271 6.74931 27.1442 5.43213 28.0699C2.86986 25.6766 1.34084 22.6172 0.94873 18.9297H8.53524C8.78651 21.1271 9.03552 23.3011 9.27327 25.3721V25.371Z" fill="#FFA229"/>
<path d="M19.9111 10.6302C20.1274 12.5714 20.337 14.4465 20.5522 16.373H11.0704C11.2891 14.4308 11.5054 12.5098 11.7285 10.5261C14.4823 11.1239 17.1178 11.1653 19.9111 10.6302Z" fill="#FFA229"/>
<path d="M19.866 24.6178C17.1471 24.0928 14.5038 24.1196 11.706 24.7443C11.4896 22.8043 11.2767 20.8968 11.0569 18.9343H20.4575C20.4654 20.8218 20.2085 22.6879 19.8649 24.6178H19.866Z" fill="#FFA229"/>
<path d="M25.9358 7.94336C28.0664 10.2315 29.334 13.0424 29.689 16.3482C29.5132 16.3694 29.3611 16.4041 29.2078 16.4041C27.2957 16.4075 25.3836 16.3975 23.4715 16.4143C23.0817 16.4176 22.9836 16.2933 22.9453 15.9116C22.7593 14.0611 22.5239 12.2163 22.3267 10.367C22.3087 10.1979 22.3909 9.92255 22.516 9.84978C23.6236 9.2061 24.7515 8.596 25.9347 7.94336H25.9358Z" fill="#FFA229"/>
<path d="M25.9235 27.3489C24.6727 26.6089 23.5043 25.9171 22.373 25.2477C22.604 23.1834 22.8384 21.0777 23.0784 18.9307H29.6812C29.3523 22.2084 28.079 25.0115 25.9235 27.3489Z" fill="#FFA229"/>
<path d="M12.3979 27.1463C14.7169 26.6269 16.9478 26.6023 19.2521 27.0455C18.7349 28.6296 18.1884 30.1252 17.0481 31.3129C16.2053 32.1917 15.4312 32.1962 14.5873 31.3263C13.4661 30.1711 12.9264 28.709 12.3979 27.1463Z" fill="#FFA229"/>
<path d="M12.4541 8.12279C12.8811 6.82086 13.3634 5.63425 14.1533 4.59764C14.3662 4.31777 14.6164 4.05582 14.8891 3.83529C15.5133 3.33042 16.1353 3.29236 16.7167 3.83641C17.2136 4.30098 17.6721 4.84727 18.0023 5.43722C18.4868 6.30368 18.8406 7.2429 19.2789 8.21234C16.9206 8.6478 14.7167 8.62653 12.4541 8.12279Z" fill="#FFA229"/>
<path d="M7.59101 5.42369C8.89243 4.85278 10.1927 4.28186 11.4941 3.71094C11.5144 3.7546 11.5347 3.79713 11.5538 3.84079C11.0491 4.97592 10.5431 6.11104 9.97864 7.38162C9.16735 6.81069 8.36397 6.24425 7.56059 5.67893C7.57073 5.59385 7.58087 5.50877 7.59101 5.42482V5.42369Z" fill="#FFA229"/>
<path d="M7.57073 29.5736C8.34933 29.0194 9.12905 28.4653 9.93242 27.8933C10.471 29.1359 10.9623 30.2687 11.5324 31.5841C10.1465 30.9763 8.86651 30.4154 7.5865 29.8546C7.58087 29.7617 7.57637 29.6676 7.57073 29.5747V29.5736Z" fill="#FFA229"/>
<path d="M23.8851 6.2657C23.1528 6.69109 22.4193 7.11648 21.6812 7.54635C21.1944 6.39219 20.7415 5.31976 20.2885 4.24621C20.3077 4.20255 20.3269 4.15889 20.346 4.11523C21.5302 4.74549 22.7145 5.37574 23.8987 6.00711C23.8941 6.0933 23.8896 6.1795 23.8851 6.2657Z" fill="#FFA229"/>
<path d="M20.3764 31.0133C20.8114 29.9543 21.2463 28.8942 21.7218 27.7344C22.4541 28.1587 23.1855 28.5829 23.9167 29.0072C23.9257 29.08 23.9347 29.1527 23.9426 29.2255C22.7742 29.8614 21.6057 30.4972 20.4373 31.1319C20.4169 31.0916 20.3956 31.0525 20.3753 31.0122L20.3764 31.0133Z" fill="#FFA229"/>
</g>
</g>
</g>
<defs>
<clipPath id="clip0_1_22107">
<rect width="60" height="60" fill="white" transform="translate(0.47998 0.629883)"/>
</clipPath>
<clipPath id="clip1_1_22107">
<rect width="60" height="60" fill="white" transform="translate(0.47998 0.629883)"/>
</clipPath>
<clipPath id="clip2_1_22107">
<rect width="60" height="54.375" fill="white" transform="translate(0.47998 3.44238)"/>
</clipPath>
</defs>
</svg>
